g Frame_Up
v -0.9489115 -0.06301849 -0.03033775
v -0.9615988 -0.06301849 -0.0250825
v -0.9592706 -0.07356233 -0.02275434
v -0.9489115 -0.07366159 -0.0250825
v 0.9489115 -0.07366159 -0.0250825
v 0.9489115 -0.06301849 -0.03033775
v 0.9592706 -0.07356233 -0.02275434
v 0.9615988 -0.06301849 -0.0250825
v 0.9489115 0.06301848 -0.03033775
v 0.9615988 0.06301849 -0.0250825
v 0.966854 0.06301848 -0.01239521
v 0.966854 -0.06301849 -0.01239521
v -0.9489115 0.06301848 -0.03033775
v -0.9615988 -0.06301849 -0.0250825
v 0.9592706 0.07356233 -0.02275434
v 0.9489115 0.07366158 -0.0250825
v -0.9489115 0.07366158 -0.0250825
v -0.9592706 0.07356233 -0.02275434
v -0.9615988 0.06301849 -0.0250825
v 0.9615988 0.07366158 -0.01239521
v -0.966854 -0.06301849 -0.01239521
v -0.9592706 -0.07356233 -0.02275434
v -0.9615988 -0.07366159 -0.01239521
v 0.966854 0.06301848 0.0123952
v -0.966854 0.06301848 -0.01239521
v -0.9592706 0.07356233 -0.02275434
v -0.9615988 0.07366158 -0.01239521
v -0.9615988 0.07366158 0.01239521
v -0.966854 -0.06301849 0.0123952
v -0.9615988 -0.07366159 0.01239521
v -0.9592706 -0.07356233 0.02275435
v -0.9615988 -0.06301849 0.02508251
v -0.966854 0.06301848 0.0123952
v -0.9592706 0.07356233 0.02275435
v -0.9615988 0.06301849 0.02508251
v 0.9615988 0.07366158 0.01239521
v 0.9489115 0.07388563 -0.01239521
v 0.9592706 0.07356233 0.02275435
v 0.9489115 0.07388563 0.0123952
v 0.9615988 0.06301849 0.02508251
v 0.966854 -0.06301849 0.0123952
v 0.9489115 0.06301848 0.03033775
v 0.9489115 0.07366158 0.02508251
v 0.9615988 -0.06301849 0.0250825
v -0.9489115 0.06301848 0.03033775
v -0.9489115 0.07366158 0.02508251
v -0.9592706 0.07356233 0.02275435
v -0.9615988 0.06301849 0.02508251
v 0.9489115 -0.06301849 0.03033775
v 0.9592706 -0.07356233 0.02275434
v -0.9489115 -0.06301849 0.03033775
v -0.9615988 -0.06301849 0.02508251
v -0.9592706 -0.07356233 0.02275435
v -0.9489115 -0.07366159 0.02508251
v 0.9489115 -0.07366159 0.0250825
v 0.9592706 -0.07356233 0.02275434
v 0.9615988 -0.06301849 0.0250825
v 0.9615988 -0.07366159 0.0123952
v 0.9489115 -0.07388563 0.0123952
v 0.9489115 -0.07366159 0.0250825
v 0.9615988 -0.07366159 -0.01239521
v 0.9592706 -0.07356233 -0.02275434
v 0.9615988 -0.06301849 -0.0250825
v 0.9489115 -0.07388563 -0.01239521
v 0.9489115 -0.07366159 -0.0250825
v -0.9489115 -0.07366159 -0.0250825
v -0.9489115 -0.07388563 -0.01239521
v -0.9592706 -0.07356233 -0.02275434
v -0.9615988 -0.07366159 -0.01239521
v -0.9615988 -0.07366159 0.01239521
v -0.9489115 -0.07388563 0.0123952
v -0.9489115 -0.07366159 0.02508251
v -0.9592706 -0.07356233 0.02275435
v 0.9615988 0.07366158 0.01239521
v 0.9592706 0.07356233 0.02275435
v 0.9489115 0.07366158 0.02508251
v -0.9489115 0.07366158 0.02508251
v -0.9489115 0.07388563 0.0123952
v -0.9592706 0.07356233 0.02275435
v -0.9615988 0.07366158 0.01239521
v -0.9615988 0.07366158 -0.01239521
v -0.9489115 0.07388563 -0.01239521
v -0.9592706 0.07356233 -0.02275434
v -0.9489115 0.07366158 -0.0250825
v 0.9489115 0.07366158 -0.0250825
v 0.9592706 0.07356233 -0.02275434
v 0.9615988 0.07366158 -0.01239521
vt 0.3769102 0.2947332
vt 0.3769102 0.25
vt 0.375 0.2689065
vt 0.375 0.2947332
vt 0.375 0.4552668
vt 0.3769102 0.4552668
vt 0.3689669 0.5063677
vt 0.3769102 0.5
vt 0.6230898 0.4552668
vt 0.6230898 0.5
vt 0.6230898 0.5451984
vt 0.3769102 0.5451984
vt 0.6230898 0.2947333
vt 0.3769102 0.25
vt 0.6247309 0.5000655
vt 0.625 0.4552668
vt 0.625 0.2947332
vt 0.6241927 0.25
vt 0.6230898 0.25
vt 0.625 0.5451984
vt 0.3769102 0.2048016
vt 0.3758073 0.25
vt 0.375 0.2048016
vt 0.6230898 0.7048016
vt 0.6230898 0.2048016
vt 0.625 0.2308969
vt 0.625 0.2048016
vt 0.625 0.04519838
vt 0.3769102 0.0451984
vt 0.375 0.04519837
vt 0.375 0.01910308
vt 0.3769102 0
vt 0.6230898 0.0451984
vt 0.6241927 0
vt 0.6230898 0
vt 0.625 0.7048017
vt 0.6697332 0.5451984
vt 0.6310331 0.7436323
vt 0.6697332 0.7048016
vt 0.6230898 0.75
vt 0.3769102 0.7048016
vt 0.6230898 0.7947332
vt 0.625 0.7947332
vt 0.3769102 0.75
vt 0.6230898 0.9552668
vt 0.625 0.9552668
vt 0.625 0.9810935
vt 0.6230898 1
vt 0.3769102 0.7947332
vt 0.3752691 0.7499346
vt 0.3769102 0.9552668
vt 0.3769102 1
vt 0.3758073 1
vt 0.375 0.9552668
vt 0.375 0.7947332
vt 0.3752691 0.7499346
vt 0.3769102 0.75
vt 0.375 0.7048016
vt 0.3302668 0.7048016
vt 0.3302668 0.75
vt 0.375 0.5451984
vt 0.3689669 0.5063677
vt 0.3769102 0.5
vt 0.3302668 0.5451984
vt 0.3302668 0.5
vt 0.1697332 0.5
vt 0.1697332 0.5451984
vt 0.125 0.5191031
vt 0.125 0.5451984
vt 0.125 0.7048016
vt 0.1697332 0.7048016
vt 0.1697332 0.75
vt 0.1439065 0.75
vt 0.625 0.7048016
vt 0.6310331 0.7436323
vt 0.6697332 0.75
vt 0.8302668 0.75
vt 0.8302667 0.7048016
vt 0.875 0.7308969
vt 0.875 0.7048017
vt 0.875 0.5451984
vt 0.8302668 0.5451984
vt 0.8560935 0.5
vt 0.8302668 0.5
vt 0.6697332 0.5
vt 0.6247309 0.5000655
vt 0.625 0.5451984
vn -0.1720962 -0.201562 -0.9642384
vn -0.6945178 -0.1878466 -0.6945204
vn -0.4771937 -0.7379485 -0.4771983
vn -0.09893904 -0.8156974 -0.5699551
vn 0.0989389 -0.8156974 -0.5699552
vn 0.1720961 -0.2015619 -0.9642384
vn 0.4771933 -0.7379482 -0.4771992
vn 0.6945176 -0.1878464 -0.6945208
vn 0.1720958 0.2015615 -0.9642385
vn 0.6945178 0.1878463 -0.6945205
vn 0.9642382 0.2015612 -0.1720981
vn 0.964238 -0.2015612 -0.172099
vn -0.172096 0.2015617 -0.9642385
vn -0.6945178 -0.1878466 -0.6945204
vn 0.4771937 0.7379485 -0.4771983
vn 0.09893853 0.815697 -0.5699557
vn -0.09893871 0.8156972 -0.5699555
vn -0.4771942 0.737949 -0.4771971
vn -0.6945183 0.1878467 -0.6945199
vn 0.569956 0.8156965 -0.09894087
vn -0.964238 -0.2015612 -0.1720986
vn -0.4771937 -0.7379485 -0.4771983
vn -0.5699557 -0.8156967 -0.09894158
vn 0.9642383 0.2015612 0.1720974
vn -0.9642383 0.2015612 -0.1720975
vn -0.4771942 0.737949 -0.4771971
vn -0.5699562 0.8156966 -0.09894009
vn -0.5699561 0.8156965 0.09894087
vn -0.964238 -0.2015611 0.1720988
vn -0.5699557 -0.8156966 0.09894217
vn -0.4771934 -0.7379481 0.4771993
vn -0.6945174 -0.1878462 0.6945209
vn -0.9642382 0.2015611 0.1720979
vn -0.4771937 0.7379484 0.4771985
vn -0.6945179 0.1878462 0.6945206
vn 0.5699562 0.8156965 0.09894007
vn 0.008314569 0.9999309 -0.00831447
vn 0.4771943 0.7379488 0.4771972
vn 0.008314539 0.9999309 0.00831446
vn 0.6945183 0.1878464 0.6945199
vn 0.964238 -0.2015612 0.1720985
vn 0.1720959 0.2015614 0.9642385
vn 0.09893872 0.815697 0.5699557
vn 0.6945179 -0.1878466 0.6945204
vn -0.1720956 0.2015612 0.9642386
vn -0.09893852 0.8156969 0.5699559
vn -0.4771937 0.7379484 0.4771985
vn -0.6945179 0.1878462 0.6945206
vn 0.1720962 -0.2015619 0.9642384
vn 0.4771936 -0.7379485 0.4771984
vn -0.172096 -0.2015617 0.9642385
vn -0.6945174 -0.1878462 0.6945209
vn -0.4771934 -0.7379481 0.4771993
vn -0.09893887 -0.8156972 0.5699555
vn 0.09893893 -0.8156974 0.5699551
vn 0.4771936 -0.7379485 0.4771984
vn 0.6945179 -0.1878466 0.6945204
vn 0.5699558 -0.8156967 0.09894158
vn 0.008314457 -0.9999309 0.008314562
vn 0.09893893 -0.8156974 0.5699551
vn 0.5699557 -0.8156967 -0.09894221
vn 0.4771933 -0.7379482 -0.4771992
vn 0.6945176 -0.1878464 -0.6945208
vn 0.008314542 -0.9999309 -0.008314568
vn 0.0989389 -0.8156974 -0.5699552
vn -0.09893904 -0.8156974 -0.5699551
vn -0.008314476 -0.9999309 -0.008314567
vn -0.4771937 -0.7379485 -0.4771983
vn -0.5699557 -0.8156967 -0.09894158
vn -0.5699557 -0.8156966 0.09894217
vn -0.008314446 -0.9999309 0.008314558
vn -0.09893887 -0.8156972 0.5699555
vn -0.4771934 -0.7379481 0.4771993
vn 0.5699562 0.8156965 0.09894007
vn 0.4771943 0.7379488 0.4771972
vn 0.09893872 0.815697 0.5699557
vn -0.09893852 0.8156969 0.5699559
vn -0.008314567 0.9999309 0.008314461
vn -0.4771937 0.7379484 0.4771985
vn -0.5699561 0.8156965 0.09894087
vn -0.5699562 0.8156966 -0.09894009
vn -0.008314542 0.9999309 -0.008314471
vn -0.4771942 0.737949 -0.4771971
vn -0.09893871 0.8156972 -0.5699555
vn 0.09893853 0.815697 -0.5699557
vn 0.4771937 0.7379485 -0.4771983
vn 0.569956 0.8156965 -0.09894087
g Frame_Up_0
f 3/3/3 2/2/2 1/1/1
f 4/4/4 3/3/3 1/1/1
f 4/4/4 1/1/1 5/5/5
f 1/1/1 6/6/6 5/5/5
f 7/7/7 5/5/5 6/6/6
f 8/8/8 7/7/7 6/6/6
f 9/9/9 6/6/6 1/1/1
f 8/8/8 6/6/6 10/10/10
f 6/6/6 9/9/9 10/10/10
f 8/8/8 10/10/10 11/11/11
f 12/12/12 8/8/8 11/11/11
f 13/13/13 9/9/9 1/1/1
f 1/1/1 14/14/14 13/13/13
f 10/10/10 15/15/15 11/11/11
f 15/15/15 10/10/10 9/9/9
f 16/16/16 15/15/15 9/9/9
f 16/16/16 9/9/9 17/17/17
f 9/9/9 13/13/13 17/17/17
f 18/18/18 17/17/17 13/13/13
f 19/19/19 18/18/18 13/13/13
f 14/14/14 19/19/19 13/13/13
f 15/15/15 20/20/20 11/11/11
f 14/14/14 21/21/21 19/19/19
f 14/14/14 22/22/22 21/21/21
f 22/22/22 23/23/23 21/21/21
f 24/24/24 11/11/11 20/20/20
f 11/11/11 24/24/24 12/12/12
f 21/21/21 25/25/25 19/19/19
f 26/26/26 19/19/19 25/25/25
f 27/27/27 26/26/26 25/25/25
f 27/27/27 25/25/25 28/28/28
f 29/29/29 21/21/21 23/23/23
f 25/25/25 21/21/21 29/29/29
f 30/30/30 29/29/29 23/23/23
f 30/30/30 31/31/31 29/29/29
f 31/31/31 32/32/32 29/29/29
f 25/25/25 33/33/33 28/28/28
f 33/33/33 25/25/25 29/29/29
f 33/33/33 29/29/29 32/32/32
f 34/34/34 28/28/28 33/33/33
f 35/35/35 33/33/33 32/32/32
f 35/35/35 34/34/34 33/33/33
f 36/36/36 24/24/24 20/20/20
f 36/36/36 20/20/20 37/37/37
f 36/36/36 38/38/38 24/24/24
f 39/39/39 36/36/36 37/37/37
f 38/38/38 40/40/40 24/24/24
f 41/41/41 24/24/24 40/40/40
f 24/24/24 41/41/41 12/12/12
f 40/40/40 38/38/38 42/42/42
f 38/38/38 43/43/43 42/42/42
f 44/44/44 41/41/41 40/40/40
f 44/44/44 40/40/40 42/42/42
f 45/45/45 42/42/42 43/43/43
f 46/46/46 45/45/45 43/43/43
f 46/46/46 47/47/47 45/45/45
f 47/47/47 48/48/48 45/45/45
f 49/49/49 44/44/44 42/42/42
f 42/42/42 45/45/45 49/49/49
f 44/44/44 50/50/50 41/41/41
f 45/45/45 48/48/48 51/51/51
f 45/45/45 51/51/51 49/49/49
f 48/48/48 52/52/52 51/51/51
f 52/52/52 53/53/53 51/51/51
f 53/53/53 54/54/54 51/51/51
f 49/49/49 51/51/51 54/54/54
f 55/55/55 49/49/49 54/54/54
f 55/55/55 56/56/56 49/49/49
f 56/56/56 57/57/57 49/49/49
f 50/50/50 58/58/58 41/41/41
f 12/12/12 41/41/41 58/58/58
f 58/58/58 50/50/50 59/59/59
f 50/50/50 60/60/60 59/59/59
f 61/61/61 12/12/12 58/58/58
f 61/61/61 58/58/58 59/59/59
f 61/61/61 62/62/62 12/12/12
f 62/62/62 63/63/63 12/12/12
f 62/62/62 61/61/61 64/64/64
f 64/64/64 61/61/61 59/59/59
f 65/65/65 62/62/62 64/64/64
f 66/66/66 65/65/65 64/64/64
f 67/67/67 66/66/66 64/64/64
f 64/64/64 59/59/59 67/67/67
f 68/68/68 66/66/66 67/67/67
f 69/69/69 68/68/68 67/67/67
f 70/70/70 69/69/69 67/67/67
f 59/59/59 60/60/60 71/71/71
f 59/59/59 71/71/71 67/67/67
f 71/71/71 70/70/70 67/67/67
f 60/60/60 72/72/72 71/71/71
f 73/73/73 70/70/70 71/71/71
f 72/72/72 73/73/73 71/71/71
f 75/75/75 74/74/74 39/39/39
f 76/76/76 75/75/75 39/39/39
f 77/77/77 76/76/76 39/39/39
f 78/78/78 77/77/77 39/39/39
f 79/79/79 77/77/77 78/78/78
f 80/80/80 79/79/79 78/78/78
f 81/81/81 80/80/80 78/78/78
f 78/78/78 39/39/39 37/37/37
f 82/82/82 81/81/81 78/78/78
f 82/82/82 78/78/78 37/37/37
f 83/83/83 81/81/81 82/82/82
f 84/84/84 83/83/83 82/82/82
f 85/85/85 84/84/84 82/82/82
f 37/37/37 85/85/85 82/82/82
f 86/86/86 85/85/85 37/37/37
f 87/87/87 86/86/86 37/37/37
