g GlassStand
v 0.09116673 0.01925762 -3.971571
v 0.08366132 0.01925762 -3.98062
v 0.07637119 0.01059146 -3.980237
v 0.08366132 0.01020844 -3.971571
v 0.09116673 0.1973545 -3.971571
v 0.08366132 0.2064036 -3.971571
v 0.07637119 0.2060207 -3.980237
v 0.08366132 0.1973545 -3.98062
v -0.07957458 0.01925762 -3.98062
v -0.07228422 0.01059146 -3.980237
v -0.03090143 0.01020844 -3.987272
v -0.03090143 0.01925762 -3.989693
v 0.0349884 0.01020844 -3.987272
v -0.08874059 0.1738147 -3.989693
v -0.08874059 0.1526649 -3.980153
v 0.0349884 0.01925762 -3.989693
v 0.0349884 0.1556927 -3.989693
v -0.03090143 0.1738147 -3.989693
v 0.0349884 0.1973545 -3.989693
v -0.08874059 0.1973545 -3.989693
v -0.08874059 0.1738147 -3.989693
v -0.03090143 0.01925762 -3.989693
v -0.08874059 0.2064155 -3.987265
v 0.0349884 0.2064036 -3.987272
v 0.06185341 0.01059146 -3.98492
v 0.0349884 0.003556624 -3.98062
v -0.03090143 0.01020844 -3.987272
v -0.03090143 0.003556624 -3.98062
v -0.07228422 0.01059146 -3.980237
v 0.06185341 0.2060207 -3.98492
v 0.06304073 0.1973545 -3.987272
v 0.08366132 0.1973545 -3.98062
v 0.06307745 0.1556927 -3.987265
v 0.08364034 0.1556927 -3.980632
v 0.06304073 0.01925762 -3.987272
v 0.0349884 0.1556927 -3.989693
v 0.07637119 0.2060207 -3.980237
v 0.06185341 0.2107038 -3.980237
v 0.06304073 0.2130555 -3.971571
v 0.08366132 0.2064036 -3.971571
v 0.08366132 0.2064036 -3.911294
v 0.06304073 0.2130555 -3.911294
v 0.0349884 0.2154765 -3.971571
v 0.0349884 0.2154765 -3.911294
v -0.08874059 0.2154765 -3.911294
v -0.08874059 0.2154765 -3.971571
v 0.0349884 0.2130555 -3.98062
v -0.08874059 0.2130486 -3.980632
v -0.08874059 0.2130486 -3.980632
v -0.08874059 0.2064155 -3.987265
v -0.08874059 0.1526649 -3.980153
v -0.08707952 0.01925762 -3.971571
v -0.07957458 0.01925762 -3.98062
v -0.08874059 0.1464654 -3.971571
v -0.08874059 0.1464654 -3.911294
v -0.08707952 0.01925762 -3.911294
v -0.08874059 0.2154765 -3.911294
v -0.08874059 0.1738147 -3.989693
v -0.08874059 0.1973545 -3.989693
v -0.08874059 0.2064155 -3.987265
v -0.08874059 0.2130486 -3.980632
v -0.08874059 0.2154765 -3.971571
v -0.08707952 0.01925762 -3.971571
v -0.07957458 0.01020844 -3.971571
v -0.07228422 0.01059146 -3.980237
v -0.07957458 0.01925762 -3.98062
v 0.06304073 0.003556624 -3.911294
v 0.08366132 0.01020844 -3.911294
v 0.08366132 0.01020844 -3.971571
v 0.06304073 0.003556624 -3.971571
v 0.0349884 0.001135543 -3.911294
v 0.06185341 0.00590831 -3.980237
v 0.07637119 0.01059146 -3.980237
v 0.0349884 0.001135543 -3.971571
v -0.03090143 0.001135543 -3.971571
v -0.03090143 0.001135543 -3.911294
v -0.07957458 0.01020844 -3.911294
v -0.07957458 0.01020844 -3.971571
v -0.07228422 0.01059146 -3.980237
v -0.03090143 0.003556624 -3.98062
v 0.06304073 0.01925762 -3.987272
v 0.08366132 0.01925762 -3.98062
v 0.08364034 0.1556927 -3.980632
v 0.06307745 0.1556927 -3.987265
v 0.0349884 0.1556927 -3.989693
v 0.06304073 0.1973545 -3.987272
v 0.08366132 0.01020844 -3.911294
v 0.09116673 0.01925762 -3.911294
v 0.09116673 0.01925762 -3.971571
v 0.08366132 0.01020844 -3.971571
v 0.08364034 0.1556927 -3.980632
v 0.09116673 0.1556927 -3.971571
v 0.09116673 0.1973545 -3.971571
v 0.08366132 0.1973545 -3.98062
v -0.08707952 0.01925762 -3.911294
v -0.07957458 0.01020844 -3.911294
v -0.07957458 0.01020844 -3.971571
v -0.08707952 0.01925762 -3.971571
v 0.08366132 0.01925762 -3.98062
v 0.09116673 0.01925762 -3.971571
v 0.09116673 0.1556927 -3.971571
v 0.08364034 0.1556927 -3.980632
v 0.09116673 0.01925762 -3.971571
v 0.09116673 0.01925762 -3.911294
v 0.09116673 0.1556927 -3.911294
v 0.09116673 0.1556927 -3.971571
v 0.09116673 0.1973545 -3.911294
v 0.09116673 0.1973545 -3.971571
v 0.08366132 0.2064036 -3.971571
v 0.09116673 0.1973545 -3.971571
v 0.09116673 0.1973545 -3.911294
v 0.08366132 0.2064036 -3.911294
v 0.09116673 0.1973545 3.972184
v 0.09116673 0.1556927 3.972184
v 0.09116673 0.01925762 3.972184
v 0.09116673 0.01925762 3.972184
v 0.08366132 0.01020844 3.972184
v 0.07637119 0.01059146 3.980851
v 0.08366132 0.01925762 3.981233
v 0.09116673 0.1973545 3.972184
v 0.08366132 0.1973545 3.981233
v 0.07637119 0.2060207 3.980851
v 0.08366132 0.2064036 3.972184
v -0.08707952 0.01925762 3.972184
v -0.07957458 0.01925762 3.981233
v -0.07228422 0.01059146 3.980851
v -0.07957458 0.01020844 3.972184
v -0.03090143 0.01020844 3.987886
v -0.03090143 0.003556624 3.981233
v -0.07228422 0.01059146 3.980851
v 0.0349884 0.01020844 3.987886
v 0.0349884 0.003556624 3.981233
v 0.06185341 0.00590831 3.980851
v 0.06185341 0.01059146 3.985534
v 0.0349884 0.01925762 3.990307
v -0.03090143 0.01020844 3.987886
v -0.03090143 0.01925762 3.990307
v -0.07228422 0.01059146 3.980851
v -0.07957458 0.01925762 3.981233
v -0.03090143 0.1738147 3.990307
v -0.08874059 0.1738147 3.990307
v -0.08874059 0.1526649 3.980766
v 0.0349884 0.1556927 3.990307
v 0.06304073 0.01925762 3.987886
v 0.08366132 0.01925762 3.981233
v 0.06307745 0.1556927 3.987878
v 0.08364034 0.1556927 3.981245
v 0.07637119 0.01059146 3.980851
v 0.06304073 0.003556624 3.972184
v 0.08366132 0.01020844 3.972184
v 0.0349884 0.001135543 3.972184
v -0.03090143 0.001135543 3.972184
v -0.03090143 0.003556624 3.981233
v -0.07228422 0.01059146 3.980851
v -0.07957458 0.01020844 3.972184
v 0.08366132 0.2064036 3.972184
v 0.06304073 0.2130555 3.972184
v 0.06185341 0.2107038 3.980851
v 0.07637119 0.2060207 3.980851
v 0.0349884 0.2154765 3.972184
v -0.08874059 0.2154765 3.972185
v -0.08874059 0.2130486 3.981245
v 0.0349884 0.2130555 3.981233
v 0.06185341 0.2060207 3.985534
v 0.06304073 0.1973545 3.987886
v 0.08366132 0.1973545 3.981233
v 0.08364034 0.1556927 3.981245
v 0.06307745 0.1556927 3.987878
v 0.0349884 0.1973545 3.990307
v 0.0349884 0.2064036 3.987886
v -0.08874059 0.2064155 3.987879
v -0.08874059 0.2130486 3.981245
v -0.08874059 0.1973545 3.990307
v -0.08874059 0.2064155 3.987879
v -0.03090143 0.1738147 3.990307
v -0.08874059 0.1738147 3.990307
v 0.0349884 0.1556927 3.990307
v 0.06304073 0.01925762 3.987886
v 0.06304073 0.1973545 3.987886
v 0.0349884 0.1556927 3.990307
v 0.09116673 0.1973545 3.972184
v 0.08366132 0.2064036 3.972184
v 0.08364034 0.1556927 3.981245
v 0.09116673 0.1556927 3.972184
v 0.09116673 0.01925762 3.972184
v 0.08366132 0.01925762 3.981233
v 0.08366132 0.1973545 3.981233
v 0.09116673 0.1973545 3.972184
v 0.09116673 0.1556927 3.972184
v 0.08364034 0.1556927 3.981245
v -0.08707952 0.01925762 3.972184
v -0.08874059 0.1464654 3.972185
v -0.07957458 0.01925762 3.981233
v -0.08874059 0.1526649 3.980766
v -0.08874059 0.1738147 3.990307
v -0.08874059 0.1973545 3.990307
v -0.08874059 0.2064155 3.987879
v -0.08874059 0.2130486 3.981245
v -0.08874059 0.2154765 3.972185
v -0.08707952 0.01925762 3.972184
v -0.07957458 0.01020844 3.972184
v 0.08366132 0.01020844 3.972184
v 0.09116673 0.01925762 3.972184
vt 0.4196438 0.4544289
vt 0.4198234 0.4542123
vt 0.4199979 0.4542215
vt 0.4198234 0.4544289
vt 0.4196438 0.4544289
vt 0.4198234 0.4544289
vt 0.4199979 0.4542215
vt 0.4198234 0.4542123
vt 0.4237303 0.4542123
vt 0.4235558 0.4542215
vt 0.4225653 0.4540531
vt 0.4225653 0.4539951
vt 0.4209883 0.4540531
vt 0.4239497 0.4539952
vt 0.4239497 0.4542235
vt 0.4209883 0.4539951
vt 0.4209883 0.4539951
vt 0.4225653 0.4539951
vt 0.4209883 0.4539951
vt 0.4239497 0.4539952
vt 0.4239497 0.4539952
vt 0.4225653 0.4539951
vt 0.4239497 0.4540533
vt 0.4209883 0.4540531
vt 0.4203454 0.4541094
vt 0.4209883 0.4542123
vt 0.4225653 0.4540531
vt 0.4225653 0.4542123
vt 0.4235558 0.4542215
vt 0.4203454 0.4541094
vt 0.4203169 0.4540531
vt 0.4198234 0.4542123
vt 0.420316 0.4540533
vt 0.4198239 0.454212
vt 0.4203169 0.4540531
vt 0.4209883 0.4539951
vt 0.4199979 0.4542215
vt 0.4203454 0.4542215
vt 0.4203169 0.4544289
vt 0.4198234 0.4544289
vt 0.4198234 0.4558716
vt 0.4203169 0.4558716
vt 0.4209883 0.4544289
vt 0.4209883 0.4558716
vt 0.4239497 0.4558716
vt 0.4239497 0.4544289
vt 0.4209883 0.4542123
vt 0.4239497 0.454212
vt 0.4239497 0.454212
vt 0.4239497 0.4540533
vt 0.4239497 0.4542235
vt 0.4239099 0.4544289
vt 0.4237303 0.4542123
vt 0.4239497 0.4544289
vt 0.4239497 0.4558716
vt 0.4239099 0.4558716
vt 0.4239497 0.4558716
vt 0.4239497 0.4539952
vt 0.4239497 0.4539952
vt 0.4239497 0.4540533
vt 0.4239497 0.454212
vt 0.4239497 0.4544289
vt 0.4239099 0.4544289
vt 0.4237303 0.4544289
vt 0.4235558 0.4542215
vt 0.4237303 0.4542123
vt 0.4203169 0.4558716
vt 0.4198234 0.4558716
vt 0.4198234 0.4544289
vt 0.4203169 0.4544289
vt 0.4209883 0.4558716
vt 0.4203454 0.4542215
vt 0.4199979 0.4542215
vt 0.4209883 0.4544289
vt 0.4225653 0.4544289
vt 0.4225653 0.4558716
vt 0.4237303 0.4558716
vt 0.4237303 0.4544289
vt 0.4235558 0.4542215
vt 0.4225653 0.4542123
vt 0.4203169 0.4540531
vt 0.4198234 0.4542123
vt 0.4198239 0.454212
vt 0.420316 0.4540533
vt 0.4209883 0.4539951
vt 0.4203169 0.4540531
vt 0.4198234 0.4558716
vt 0.4196438 0.4558716
vt 0.4196438 0.4544289
vt 0.4198234 0.4544289
vt 0.4198239 0.454212
vt 0.4196438 0.4544289
vt 0.4196438 0.4544289
vt 0.4198234 0.4542123
vt 0.4239099 0.4558716
vt 0.4237303 0.4558716
vt 0.4237303 0.4544289
vt 0.4239099 0.4544289
vt 0.4198234 0.4542123
vt 0.4196438 0.4544289
vt 0.4196438 0.4544289
vt 0.4198239 0.454212
vt 0.4196438 0.4544289
vt 0.4196438 0.4558716
vt 0.4196438 0.4558716
vt 0.4196438 0.4544289
vt 0.4196438 0.4558716
vt 0.4196438 0.4544289
vt 0.4198234 0.4544289
vt 0.4196438 0.4544289
vt 0.4196438 0.4558716
vt 0.4198234 0.4558716
vt 0.4196438 0.6445531
vt 0.4196438 0.6445531
vt 0.4196438 0.6445531
vt 0.4196438 0.6445531
vt 0.4198234 0.6445531
vt 0.4199979 0.6447605
vt 0.4198234 0.6447697
vt 0.4196438 0.6445531
vt 0.4198234 0.6447697
vt 0.4199979 0.6447605
vt 0.4198234 0.6445531
vt 0.4239099 0.6445531
vt 0.4237303 0.6447697
vt 0.4235558 0.6447605
vt 0.4237303 0.6445531
vt 0.4225653 0.6449289
vt 0.4225653 0.6447697
vt 0.4235558 0.6447605
vt 0.4209883 0.6449289
vt 0.4209883 0.6447697
vt 0.4203454 0.6447605
vt 0.4203454 0.6448725
vt 0.4209883 0.6449868
vt 0.4225653 0.6449289
vt 0.4225653 0.6449868
vt 0.4235558 0.6447605
vt 0.4237303 0.6447697
vt 0.4225653 0.6449868
vt 0.4239497 0.6449868
vt 0.4239497 0.6447585
vt 0.4209883 0.6449868
vt 0.4203169 0.6449289
vt 0.4198234 0.6447697
vt 0.420316 0.6449287
vt 0.4198239 0.6447699
vt 0.4199979 0.6447605
vt 0.4203169 0.6445531
vt 0.4198234 0.6445531
vt 0.4209883 0.6445531
vt 0.4225653 0.6445531
vt 0.4225653 0.6447697
vt 0.4235558 0.6447605
vt 0.4237303 0.6445531
vt 0.4198234 0.6445531
vt 0.4203169 0.6445531
vt 0.4203454 0.6447605
vt 0.4199979 0.6447605
vt 0.4209883 0.6445531
vt 0.4239497 0.6445531
vt 0.4239497 0.6447699
vt 0.4209883 0.6447697
vt 0.4203454 0.6448725
vt 0.4203169 0.6449289
vt 0.4198234 0.6447697
vt 0.4198239 0.6447699
vt 0.420316 0.6449287
vt 0.4209883 0.6449868
vt 0.4209883 0.6449289
vt 0.4239497 0.6449287
vt 0.4239497 0.6447699
vt 0.4239497 0.6449868
vt 0.4239497 0.6449287
vt 0.4225653 0.6449868
vt 0.4239497 0.6449868
vt 0.4209883 0.6449868
vt 0.4203169 0.6449289
vt 0.4203169 0.6449289
vt 0.4209883 0.6449868
vt 0.4196438 0.6445531
vt 0.4198234 0.6445531
vt 0.4198239 0.6447699
vt 0.4196438 0.6445531
vt 0.4196438 0.6445531
vt 0.4198234 0.6447697
vt 0.4198234 0.6447697
vt 0.4196438 0.6445531
vt 0.4196438 0.6445531
vt 0.4198239 0.6447699
vt 0.4239099 0.6445531
vt 0.4239497 0.6445531
vt 0.4237303 0.6447697
vt 0.4239497 0.6447585
vt 0.4239497 0.6449868
vt 0.4239497 0.6449868
vt 0.4239497 0.6449287
vt 0.4239497 0.6447699
vt 0.4239497 0.6445531
vt 0.4239099 0.6445531
vt 0.4237303 0.6445531
vt 0.4198234 0.6445531
vt 0.4196438 0.6445531
vn 0.6379125 -0.5445406 -0.5445578
vn 0.6379125 -0.5445406 -0.5445578
vn 0.6379125 -0.5445406 -0.5445578
vn 0.6379125 -0.5445406 -0.5445578
vn 0.6379123 0.5445443 -0.5445543
vn 0.6379123 0.5445443 -0.5445543
vn 0.6379123 0.5445443 -0.5445543
vn 0.6379123 0.5445443 -0.5445543
vn -0.1644864 -0.1025429 -0.9810348
vn -0.1725656 -0.222852 -0.9594572
vn -0.08756008 -0.241384 -0.9664715
vn -0.08305015 -0.1299729 -0.9880333
vn 0.04046772 -0.4988375 -0.8657502
vn -0.07978939 -0.0181923 -0.9966457
vn -0.1590393 -0.03626254 -0.9866061
vn 0.04310941 -0.1315216 -0.9903755
vn 0.04306269 -8.009599E-06 -0.9990723
vn -0.03986099 -0.009088531 -0.9991639
vn 0.04310471 0.1315641 -0.9903701
vn -1.091931E-05 0.1304298 -0.9914575
vn -0.07978939 -0.0181923 -0.9966457
vn -0.08305015 -0.1299729 -0.9880333
vn -1.829978E-05 0.2586248 -0.9659778
vn 0.04046891 0.4988706 -0.8657312
vn 0.1689888 -0.4956277 -0.8519366
vn 0.04046716 -0.8657551 -0.4988292
vn -0.06066413 -0.7058191 -0.7057899
vn -0.06066445 -0.7058191 -0.7057898
vn -0.1257472 -0.7015108 -0.7014771
vn 0.1689877 0.4956303 -0.8519354
vn 0.198858 0.1391409 -0.9701007
vn 0.3052235 0.1077537 -0.9461648
vn 0.1978276 1.138676E-05 -0.9802368
vn 0.3070063 3.860139E-05 -0.9517075
vn 0.198881 -0.1391257 -0.9700981
vn 0.04306269 -8.009599E-06 -0.9990723
vn 0.3173786 0.6705536 -0.6705436
vn 0.1689796 0.8519488 -0.49561
vn 0.1988697 0.9700994 -0.1391325
vn 0.3052211 0.9461764 -0.1076583
vn 0.3070093 0.9517065 0
vn 0.1977563 0.9802511 0
vn 0.04308902 0.9903679 -0.1315858
vn 0.04303071 0.9990737 0
vn 0 1 0
vn -7.315853E-06 0.9914573 -0.1304319
vn 0.04046904 0.8657351 -0.4988637
vn -1.450671E-05 0.965975 -0.2586354
vn 2.666751E-05 0.7071137 -0.7070998
vn 2.666751E-05 0.7071137 -0.7070998
vn -0.9939952 -0.01009221 -0.1089571
vn -0.9781732 -0.02575232 -0.2061894
vn -0.9146757 -0.03727862 -0.4024659
vn -0.9895115 -0.01662065 -0.1434946
vn -0.9999787 -0.006528519 0
vn -0.9999148 -0.01305676 0
vn -1 0 0
vn -1 0 0
vn -1 0 0
vn -1 0 0
vn -1 0 0
vn -1 0 0
vn -0.6379206 -0.5445324 -0.5445564
vn -0.6379206 -0.5445324 -0.5445564
vn -0.6379206 -0.5445324 -0.5445564
vn -0.6379206 -0.5445324 -0.5445564
vn 0.1977559 -0.9802513 0
vn 0.3070042 -0.9517082 0
vn 0.3052167 -0.9461776 -0.10766
vn 0.1988692 -0.9700992 -0.1391347
vn 0.04303297 -0.9990736 0
vn 0.1689797 -0.8519481 -0.4956111
vn 0.317379 -0.6705455 -0.6705515
vn 0.04309406 -0.9903737 -0.1315403
vn -0.08934297 -0.9886304 -0.1209452
vn -0.0920145 -0.9957576 0
vn -0.1832483 -0.9830667 0
vn -0.180423 -0.9802219 -0.08131704
vn -0.1725557 -0.9594522 -0.2228817
vn -0.08755523 -0.9664642 -0.2414145
vn 0.198881 -0.1391257 -0.9700981
vn 0.3052257 -0.1076803 -0.9461724
vn 0.3070063 3.860139E-05 -0.9517075
vn 0.1978276 1.138676E-05 -0.9802368
vn 0.04306269 -8.009599E-06 -0.9990723
vn 0.198858 0.1391409 -0.9701007
vn 0.7697071 -0.6383971 0
vn 0.7697071 -0.6383971 0
vn 0.7697074 -0.6383968 0
vn 0.7697074 -0.6383968 0
vn 0.7694712 -3.561969E-05 -0.6386815
vn 0.7694712 -3.562777E-05 -0.6386815
vn 0.7694711 -0.0001025791 -0.6386816
vn 0.7694711 -0.0001025791 -0.6386816
vn -0.7697269 -0.6383734 0
vn -0.7697269 -0.6383734 0
vn -0.7697269 -0.6383734 0
vn -0.7697269 -0.6383734 0
vn 0.7694713 3.132355E-05 -0.6386814
vn 0.7694713 3.132355E-05 -0.6386814
vn 0.7694712 -3.562777E-05 -0.6386815
vn 0.7694712 -3.561969E-05 -0.6386815
vn 1 0 0
vn 1 0 0
vn 1 0 0
vn 1 0 0
vn 1 0 0
vn 1 0 0
vn 0.7697033 0.6384018 0
vn 0.7697033 0.6384018 0
vn 0.769703 0.638402 0
vn 0.769703 0.638402 0
vn 1 0 0
vn 1 0 0
vn 1 0 0
vn 0.6379227 -0.5445346 0.5445517
vn 0.6379227 -0.5445346 0.5445517
vn 0.6379227 -0.5445346 0.5445517
vn 0.6379227 -0.5445346 0.5445517
vn 0.6379225 0.5445384 0.5445483
vn 0.6379225 0.5445384 0.5445483
vn 0.6379225 0.5445384 0.5445483
vn 0.6379225 0.5445384 0.5445483
vn -0.6379308 -0.5445263 0.5445505
vn -0.6379308 -0.5445263 0.5445505
vn -0.6379308 -0.5445263 0.5445505
vn -0.6379308 -0.5445263 0.5445505
vn -0.06066221 -0.7058316 0.7057774
vn -0.06066236 -0.7058316 0.7057774
vn -0.125743 -0.7015112 0.7014775
vn 0.04046704 -0.498846 0.8657454
vn 0.04046655 -0.8657557 0.498828
vn 0.1689814 -0.8519454 0.495615
vn 0.1689859 -0.4956285 0.8519366
vn 0.04311034 -0.131528 0.9903746
vn -0.08755819 -0.2414012 0.9664673
vn -0.08305014 -0.1299824 0.988032
vn -0.1725618 -0.2228862 0.9594499
vn -0.1644876 -0.1025577 0.981033
vn -0.03986045 -0.009089522 0.9991639
vn -0.07978705 -0.01819426 0.9966459
vn -0.159043 -0.03626649 0.9866053
vn 0.04306519 -8.035454E-06 0.9990722
vn 0.1988808 -0.1391322 0.9700973
vn 0.3052236 -0.1076799 0.9461731
vn 0.1978296 1.096687E-05 0.9802365
vn 0.3070063 3.781901E-05 0.9517075
vn 0.3173798 -0.6705437 0.6705529
vn 0.1988707 -0.9700992 0.1391329
vn 0.3052185 -0.9461769 0.1076607
vn 0.04309407 -0.9903735 0.1315416
vn -0.0893435 -0.9886301 0.1209476
vn -0.08755635 -0.966463 0.241419
vn -0.1725579 -0.9594525 0.2228786
vn -0.1804236 -0.9802219 0.08131668
vn 0.3052229 0.9461758 0.107659
vn 0.1988713 0.9700994 0.1391307
vn 0.1689816 0.8519461 0.495614
vn 0.3173819 0.6705446 0.6705509
vn 0.0430891 0.9903681 0.131584
vn -7.214624E-06 0.9914573 0.1304321
vn -1.430596E-05 0.965975 0.2586354
vn 0.0404692 0.8657331 0.4988673
vn 0.1689853 0.4956289 0.8519366
vn 0.1988581 0.1391439 0.9701002
vn 0.3052216 0.1077444 0.9461664
vn 0.3070063 3.781901E-05 0.9517075
vn 0.1978296 1.096687E-05 0.9802365
vn 0.04310736 0.1315793 0.990368
vn 0.04046975 0.4988794 0.865726
vn 2.865268E-05 0.7071137 0.7070998
vn 2.865268E-05 0.7071137 0.7070998
vn -5.177839E-06 0.130442 0.9914559
vn -1.361871E-05 0.2586488 0.9659714
vn -0.03986045 -0.009089522 0.9991639
vn -0.07978705 -0.01819426 0.9966459
vn 0.04306519 -8.035454E-06 0.9990722
vn 0.1988808 -0.1391322 0.9700973
vn 0.1988581 0.1391439 0.9701002
vn 0.04306519 -8.035454E-06 0.9990722
vn 0.7697029 0.6384024 0
vn 0.7697029 0.6384024 0
vn 0.7694753 -3.430024E-05 0.6386765
vn 0.7694753 -3.430796E-05 0.6386765
vn 0.7694755 3.016318E-05 0.6386763
vn 0.7694755 3.016318E-05 0.6386763
vn 0.7694752 -9.87791E-05 0.6386767
vn 0.7694752 -9.87791E-05 0.6386767
vn 0.7694753 -3.430796E-05 0.6386765
vn 0.7694753 -3.430024E-05 0.6386765
vn -0.9781728 -0.02575082 0.2061915
vn -0.989511 -0.01661979 0.1434982
vn -0.9146738 -0.0372757 0.4024703
vn -0.9939956 -0.01009106 0.1089545
vn -1 0 0
vn -1 0 0
vn -1 0 0
vn -1 0 0
vn -1 0 0
vn -0.7697269 -0.6383734 0
vn -0.7697269 -0.6383734 0
vn 0.7697068 -0.6383975 0
vn 0.7697068 -0.6383975 0
g GlassStand_0
f 3/3/3 2/2/2 1/1/1
f 4/4/4 3/3/3 1/1/1
f 7/7/7 6/6/6 5/5/5
f 8/8/8 7/7/7 5/5/5
f 11/11/11 10/10/10 9/9/9
f 12/12/12 11/11/11 9/9/9
f 11/11/11 12/12/12 13/13/13
f 9/9/9 14/14/14 12/12/12
f 15/15/15 14/14/14 9/9/9
f 12/12/12 16/16/16 13/13/13
f 17/17/17 16/16/16 12/12/12
f 18/18/18 17/17/17 12/12/12
f 19/19/19 17/17/17 18/18/18
f 20/20/20 19/19/19 18/18/18
f 20/20/20 18/18/18 21/21/21
f 18/18/18 22/22/22 21/21/21
f 19/19/19 20/20/20 23/23/23
f 24/24/24 19/19/19 23/23/23
f 25/25/25 13/13/13 16/16/16
f 13/13/13 25/25/25 26/26/26
f 27/27/27 13/13/13 26/26/26
f 28/28/28 27/27/27 26/26/26
f 29/29/29 27/27/27 28/28/28
f 24/24/24 30/30/30 19/19/19
f 30/30/30 31/31/31 19/19/19
f 31/31/31 30/30/30 32/32/32
f 31/31/31 32/32/32 33/33/33
f 32/32/32 34/34/34 33/33/33
f 33/33/33 35/35/35 16/16/16
f 36/36/36 33/33/33 16/16/16
f 30/30/30 37/37/37 32/32/32
f 38/38/38 37/37/37 30/30/30
f 38/38/38 30/30/30 24/24/24
f 37/37/37 38/38/38 39/39/39
f 40/40/40 37/37/37 39/39/39
f 41/41/41 40/40/40 39/39/39
f 42/42/42 41/41/41 39/39/39
f 42/42/42 39/39/39 43/43/43
f 39/39/39 38/38/38 43/43/43
f 44/44/44 42/42/42 43/43/43
f 44/44/44 43/43/43 45/45/45
f 43/43/43 46/46/46 45/45/45
f 38/38/38 47/47/47 43/43/43
f 43/43/43 47/47/47 46/46/46
f 47/47/47 38/38/38 24/24/24
f 47/47/47 48/48/48 46/46/46
f 47/47/47 24/24/24 49/49/49
f 24/24/24 50/50/50 49/49/49
f 53/53/53 52/52/52 51/51/51
f 52/52/52 54/54/54 51/51/51
f 54/54/54 52/52/52 55/55/55
f 54/54/54 55/55/55 51/51/51
f 52/52/52 56/56/56 55/55/55
f 57/57/57 51/51/51 55/55/55
f 58/58/58 51/51/51 57/57/57
f 59/59/59 58/58/58 57/57/57
f 60/60/60 59/59/59 57/57/57
f 61/61/61 60/60/60 57/57/57
f 62/62/62 61/61/61 57/57/57
f 65/65/65 64/64/64 63/63/63
f 66/66/66 65/65/65 63/63/63
f 69/69/69 68/68/68 67/67/67
f 70/70/70 69/69/69 67/67/67
f 70/70/70 67/67/67 71/71/71
f 70/70/70 72/72/72 69/69/69
f 72/72/72 73/73/73 69/69/69
f 74/74/74 70/70/70 71/71/71
f 72/72/72 70/70/70 74/74/74
f 75/75/75 74/74/74 71/71/71
f 76/76/76 75/75/75 71/71/71
f 76/76/76 77/77/77 75/75/75
f 77/77/77 78/78/78 75/75/75
f 78/78/78 79/79/79 75/75/75
f 79/79/79 80/80/80 75/75/75
f 75/75/75 80/80/80 74/74/74
f 80/80/80 26/26/26 74/74/74
f 26/26/26 72/72/72 74/74/74
f 25/25/25 72/72/72 26/26/26
f 72/72/72 25/25/25 73/73/73
f 73/73/73 25/25/25 81/81/81
f 81/81/81 25/25/25 16/16/16
f 82/82/82 73/73/73 81/81/81
f 83/83/83 82/82/82 81/81/81
f 84/84/84 83/83/83 81/81/81
f 86/86/86 84/84/84 85/85/85
f 19/19/19 86/86/86 85/85/85
f 89/89/89 88/88/88 87/87/87
f 90/90/90 89/89/89 87/87/87
f 93/93/93 92/92/92 91/91/91
f 94/94/94 93/93/93 91/91/91
f 97/97/97 96/96/96 95/95/95
f 98/98/98 97/97/97 95/95/95
f 101/101/101 100/100/100 99/99/99
f 102/102/102 101/101/101 99/99/99
f 105/105/105 104/104/104 103/103/103
f 106/106/106 105/105/105 103/103/103
f 107/107/107 105/105/105 106/106/106
f 108/108/108 107/107/107 106/106/106
f 111/111/111 110/110/110 109/109/109
f 112/112/112 111/111/111 109/109/109
g GlassStand_1
f 107/107/107 113/113/113 105/105/105
f 113/113/113 114/114/114 105/105/105
f 105/105/105 114/114/114 104/104/104
f 114/114/114 115/115/115 104/104/104
f 118/118/118 117/117/117 116/116/116
f 119/119/119 118/118/118 116/116/116
f 122/122/122 121/121/121 120/120/120
f 123/123/123 122/122/122 120/120/120
f 126/126/126 125/125/125 124/124/124
f 127/127/127 126/126/126 124/124/124
f 130/130/130 129/129/129 128/128/128
f 131/131/131 128/128/128 129/129/129
f 132/132/132 131/131/131 129/129/129
f 132/132/132 133/133/133 131/131/131
f 133/133/133 134/134/134 131/131/131
f 131/131/131 134/134/134 135/135/135
f 131/131/131 135/135/135 136/136/136
f 135/135/135 137/137/137 136/136/136
f 138/138/138 136/136/136 137/137/137
f 139/139/139 138/138/138 137/137/137
f 137/137/137 140/140/140 139/139/139
f 140/140/140 137/137/137 135/135/135
f 141/141/141 139/139/139 140/140/140
f 142/142/142 139/139/139 141/141/141
f 143/143/143 140/140/140 135/135/135
f 134/134/134 144/144/144 135/135/135
f 144/144/144 134/134/134 145/145/145
f 144/144/144 145/145/145 146/146/146
f 145/145/145 147/147/147 146/146/146
f 134/134/134 148/148/148 145/145/145
f 148/148/148 134/134/134 133/133/133
f 148/148/148 133/133/133 149/149/149
f 150/150/150 148/148/148 149/149/149
f 68/68/68 150/150/150 149/149/149
f 67/67/67 68/68/68 149/149/149
f 149/149/149 133/133/133 151/151/151
f 67/67/67 149/149/149 151/151/151
f 71/71/71 67/67/67 151/151/151
f 133/133/133 132/132/132 151/151/151
f 76/76/76 71/71/71 151/151/151
f 151/151/151 132/132/132 152/152/152
f 152/152/152 76/76/76 151/151/151
f 132/132/132 153/153/153 152/152/152
f 153/153/153 154/154/154 152/152/152
f 154/154/154 155/155/155 152/152/152
f 76/76/76 152/152/152 155/155/155
f 77/77/77 76/76/76 155/155/155
f 156/156/156 41/41/41 42/42/42
f 157/157/157 156/156/156 42/42/42
f 157/157/157 42/42/42 44/44/44
f 157/157/157 158/158/158 156/156/156
f 158/158/158 159/159/159 156/156/156
f 160/160/160 157/157/157 44/44/44
f 158/158/158 157/157/157 160/160/160
f 160/160/160 44/44/44 161/161/161
f 44/44/44 45/45/45 161/161/161
f 161/161/161 162/162/162 160/160/160
f 162/162/162 163/163/163 160/160/160
f 163/163/163 158/158/158 160/160/160
f 158/158/158 164/164/164 159/159/159
f 164/164/164 158/158/158 163/163/163
f 159/159/159 164/164/164 165/165/165
f 166/166/166 159/159/159 165/165/165
f 167/167/167 166/166/166 165/165/165
f 168/168/168 167/167/167 165/165/165
f 165/165/165 164/164/164 169/169/169
f 170/170/170 164/164/164 163/163/163
f 164/164/164 170/170/170 169/169/169
f 171/171/171 170/170/170 163/163/163
f 172/172/172 171/171/171 163/163/163
f 173/173/173 169/169/169 170/170/170
f 174/174/174 173/173/173 170/170/170
f 169/169/169 173/173/173 143/143/143
f 173/173/173 175/175/175 143/143/143
f 173/173/173 176/176/176 175/175/175
f 178/178/178 168/168/168 177/177/177
f 135/135/135 178/178/178 177/177/177
f 146/146/146 179/179/179 169/169/169
f 180/180/180 146/146/146 169/169/169
f 181/181/181 111/111/111 112/112/112
f 182/182/182 181/181/181 112/112/112
f 185/185/185 184/184/184 183/183/183
f 186/186/186 185/185/185 183/183/183
f 189/189/189 188/188/188 187/187/187
f 190/190/190 189/189/189 187/187/187
f 55/55/55 56/56/56 191/191/191
f 192/192/192 55/55/55 191/191/191
f 191/191/191 193/193/193 192/192/192
f 193/193/193 194/194/194 192/192/192
f 55/55/55 192/192/192 57/57/57
f 194/194/194 57/57/57 192/192/192
f 195/195/195 57/57/57 194/194/194
f 196/196/196 57/57/57 195/195/195
f 197/197/197 57/57/57 196/196/196
f 198/198/198 57/57/57 197/197/197
f 199/199/199 57/57/57 198/198/198
f 96/96/96 201/201/201 200/200/200
f 95/95/95 96/96/96 200/200/200
f 88/88/88 203/203/203 202/202/202
f 87/87/87 88/88/88 202/202/202
