g Hatch
v -0.339042 0.004107478 -0.7562952
v -0.3673404 -0.004107805 -0.7445737
v -0.339042 -0.004107805 -0.7562952
v -0.3673404 0.004107478 -0.7445737
v -0.379062 -0.004107805 -0.7162752
v -0.379062 0.004107478 -0.7162752
v -0.3640907 0.01435799 -0.741324
v -0.3748161 0.01435799 -0.7154307
v -0.3381974 0.01435799 -0.7520494
v 0.339042 0.004107478 -0.7562952
v -0.339042 -0.004107805 -0.7562952
v -0.3645655 0.01860388 -0.7133917
v -0.3562453 0.01860388 -0.7334785
v 0.3381974 0.01435799 -0.7520494
v 0.3673404 0.004107478 -0.7445737
v 0.339042 -0.004107805 -0.7562952
v -0.3361584 0.01860388 -0.7417988
v 0.3640907 0.01435799 -0.741324
v 0.379062 0.004107478 -0.7162752
v 0.3361584 0.01860388 -0.7417988
v 0.3562453 0.01860388 -0.7334785
v 0.3748161 0.01435799 -0.7154307
v 0.379062 0.004107478 -0.0381913
v 0.3645655 0.01860388 -0.7133917
v 0.3748161 0.01435799 -0.03903586
v 0.3645655 0.01860388 -0.04107483
v 0.3673404 0.004107478 -0.009892913
v 0.379062 -0.004107805 -0.0381913
v 0.3673404 -0.004107805 -0.009892913
v 0.3640907 0.01435799 -0.01314257
v 0.339042 0.004107478 0.001828662
v 0.339042 -0.004107805 0.001828662
v -0.3645655 0.01860388 -0.04107483
v 0.3562453 0.01860388 -0.02098797
v 0.3381974 0.01435799 -0.002417207
v -0.3748161 0.01435799 -0.03903586
v -0.3562453 0.01860388 -0.02098797
v -0.339042 0.004107478 0.001828662
v 0.339042 -0.004107805 0.001828662
v 0.3361585 0.01860388 -0.01266773
v -0.3381974 0.01435799 -0.002417207
v -0.3361585 0.01860388 -0.01266773
v -0.3640907 0.01435799 -0.01314257
v -0.379062 0.004107478 -0.0381913
v -0.3673404 0.004107478 -0.009892913
v -0.339042 -0.004107805 0.001828662
v -0.3673404 -0.004107805 -0.009892913
v -0.379062 -0.004107805 -0.0381913
v -0.379062 -0.004107805 -0.0381913
v -0.379062 -0.004107805 -0.7162752
v -0.3748161 -0.01435831 -0.7154307
v -0.3748161 -0.01435831 -0.03903586
v -0.3673404 -0.004107805 -0.009892913
v -0.3640907 -0.01435831 -0.741324
v -0.3673404 -0.004107805 -0.7445737
v -0.3640907 -0.01435831 -0.01314257
v -0.339042 -0.004107805 0.001828662
v -0.3381974 -0.01435831 -0.002417207
v -0.3381974 -0.01435831 -0.7520494
v 0.3381974 -0.01435831 -0.002417207
v 0.3673404 -0.004107805 -0.009892913
v 0.3381974 -0.01435831 -0.7520494
v 0.3640907 -0.01435831 -0.01314257
v 0.379062 -0.004107805 -0.0381913
v -0.3562453 -0.01860421 -0.02098797
v -0.3361585 -0.01860421 -0.01266773
v 0.3361585 -0.01860421 -0.01266773
v 0.3562453 -0.01860421 -0.02098797
v 0.3748161 -0.01435831 -0.03903586
v -0.3645655 -0.01860421 -0.04107483
v 0.3645655 -0.01860421 -0.04107483
v 0.379062 -0.004107805 -0.7162752
v 0.379062 0.004107478 -0.0381913
v 0.379062 0.004107478 -0.7162752
v -0.3645655 -0.01860421 -0.7133917
v 0.3748161 -0.01435831 -0.7154307
v 0.3673404 -0.004107805 -0.7445737
v 0.3673404 0.004107478 -0.7445737
v 0.3645655 -0.01860421 -0.7133917
v -0.3562453 -0.01860421 -0.7334785
v 0.339042 0.004107478 -0.7562952
v 0.3640907 -0.01435831 -0.741324
v 0.3562453 -0.01860421 -0.7334785
v 0.3361584 -0.01860421 -0.7417988
v -0.3361584 -0.01860421 -0.7417988
vt 0.9472118 0
vt 0.9845386 0.01546135
vt 0.9472118 0
vt 0.9845386 0.01546135
vt 1 0.05278824
vt 1 0.05278824
vt 0.9839109 0.01608909
vt 0.9997869 0.05283064
vt 0.9471694 0.0002131511
vt 0.05278816 0
vt 0.9472118 0
vt 0.9808786 0.05659175
vt 0.9699039 0.03009628
vt 0.05283061 0.0002131512
vt 0.01546126 0.01546135
vt 0.05278816 0
vt 0.9434083 0.01912141
vt 0.01608899 0.01608909
vt 0 0.05278824
vt 0.05659171 0.01912141
vt 0.03009616 0.03009628
vt 0.000213159 0.05283064
vt 0 0.9472119
vt 0.0191214 0.05659175
vt 0.0002131586 0.9471695
vt 0.0191214 0.9434083
vt 0.01546126 0.9845387
vt 0 0.9472119
vt 0.01546126 0.9845387
vt 0.016089 0.9839109
vt 0.05278816 1
vt 0.05278816 1
vt 0.9808786 0.9434083
vt 0.03009616 0.9699038
vt 0.05283057 0.9997869
vt 0.9997869 0.9471695
vt 0.9699038 0.9699039
vt 0.9472118 1
vt 0.05278816 1
vt 0.05659166 0.9808785
vt 0.9471694 0.9997869
vt 0.9434083 0.9808786
vt 0.9839109 0.9839109
vt 1 0.9472119
vt 0.9845386 0.9845387
vt 0.9472118 1
vt 0.9845386 0.9845387
vt 1 0.9472119
vt 1 0.9472119
vt 1 0.05278824
vt 0.9997869 0.05283064
vt 0.9997869 0.9471695
vt 0.9845386 0.9845387
vt 0.9839109 0.01608909
vt 0.9845386 0.01546135
vt 0.9839109 0.9839109
vt 0.9472118 1
vt 0.9471694 0.9997869
vt 0.9471694 0.0002131512
vt 0.05283057 0.9997869
vt 0.01546126 0.9845387
vt 0.05283061 0.0002131511
vt 0.016089 0.9839109
vt 0 0.9472119
vt 0.9699038 0.9699038
vt 0.9434082 0.9808785
vt 0.05659167 0.9808786
vt 0.03009617 0.9699039
vt 0.0002131587 0.9471695
vt 0.9808786 0.9434083
vt 0.0191214 0.9434083
vt 0 0.05278824
vt 0 0.9472119
vt 0 0.05278824
vt 0.9808786 0.05659175
vt 0.0002131587 0.05283064
vt 0.01546126 0.01546135
vt 0.01546126 0.01546135
vt 0.0191214 0.05659175
vt 0.9699038 0.03009628
vt 0.05278816 0
vt 0.01608899 0.01608909
vt 0.03009617 0.03009628
vt 0.0565917 0.01912141
vt 0.9434082 0.01912141
vn -0.1913897 0.1938453 -0.9621819
vn -0.6928994 -0.1994485 -0.6929001
vn -0.1913897 -0.1938453 -0.9621819
vn -0.6928993 0.1994491 -0.6929001
vn -0.962182 -0.1938449 -0.1913896
vn -0.9621819 0.1938456 -0.1913895
vn -0.5168695 0.6824173 -0.5168681
vn -0.7109488 0.6888783 -0.1414165
vn -0.1414164 0.6888787 -0.7109485
vn 0.1913897 0.1938453 -0.9621819
vn -0.1913897 -0.1938453 -0.9621819
vn -0.2104856 0.9766999 -0.04186799
vn -0.1589779 0.9743984 -0.1589765
vn 0.1414163 0.6888787 -0.7109485
vn 0.6928994 0.1994485 -0.6929001
vn 0.1913897 -0.1938453 -0.9621819
vn -0.04186784 0.9767001 -0.2104846
vn 0.5168698 0.6824167 -0.5168684
vn 0.962182 0.1938449 -0.1913896
vn 0.04186782 0.9767001 -0.2104846
vn 0.1589777 0.9743986 -0.1589764
vn 0.7109491 0.6888779 -0.1414166
vn 0.962182 0.1938446 0.1913899
vn 0.2104854 0.9767 -0.04186793
vn 0.7109492 0.6888778 0.1414164
vn 0.210485 0.9767001 0.04186782
vn 0.6928998 0.1994475 0.6929001
vn 0.962182 -0.1938445 0.1913899
vn 0.6928998 -0.1994475 0.6929001
vn 0.5168701 0.6824155 0.5168697
vn 0.1913898 0.1938435 0.9621823
vn 0.1913898 -0.1938435 0.9621823
vn -0.210485 0.9767001 0.04186782
vn 0.1589776 0.9743983 0.1589776
vn 0.1414169 0.6888769 0.71095
vn -0.7109492 0.6888779 0.1414164
vn -0.1589776 0.9743983 0.1589776
vn -0.1913898 0.1938435 0.9621823
vn 0.1913898 -0.1938435 0.9621823
vn 0.04186793 0.9767001 0.2104849
vn -0.1414169 0.6888769 0.71095
vn -0.04186793 0.9767001 0.2104849
vn -0.5168701 0.6824156 0.5168697
vn -0.962182 0.1938446 0.1913899
vn -0.6928998 0.1994475 0.6929001
vn -0.1913898 -0.1938435 0.9621823
vn -0.6928998 -0.1994475 0.6929001
vn -0.962182 -0.1938445 0.1913899
vn -0.962182 -0.1938445 0.1913899
vn -0.962182 -0.1938449 -0.1913896
vn -0.7109491 -0.6888778 -0.1414166
vn -0.7109492 -0.6888778 0.1414163
vn -0.6928998 -0.1994475 0.6929001
vn -0.5168699 -0.6824168 -0.5168683
vn -0.6928994 -0.1994485 -0.6929001
vn -0.5168702 -0.6824156 0.5168697
vn -0.1913898 -0.1938435 0.9621823
vn -0.1414169 -0.6888769 0.71095
vn -0.1414164 -0.688879 -0.7109482
vn 0.1414169 -0.6888769 0.71095
vn 0.6928998 -0.1994475 0.6929001
vn 0.1414164 -0.688879 -0.7109482
vn 0.5168702 -0.6824156 0.5168697
vn 0.962182 -0.1938445 0.1913899
vn -0.1589776 -0.9743983 0.1589776
vn -0.04186793 -0.9767001 0.2104849
vn 0.04186792 -0.9767001 0.2104849
vn 0.1589776 -0.9743983 0.1589777
vn 0.7109492 -0.6888778 0.1414163
vn -0.2104851 -0.9767001 0.04186782
vn 0.2104851 -0.9767001 0.04186782
vn 0.9621819 -0.1938456 -0.1913895
vn 0.962182 0.1938446 0.1913899
vn 0.962182 0.1938449 -0.1913896
vn -0.2104854 -0.9767 -0.04186793
vn 0.7109488 -0.6888783 -0.1414165
vn 0.6928993 -0.1994491 -0.6929001
vn 0.6928994 0.1994485 -0.6929001
vn 0.2104856 -0.9767 -0.041868
vn -0.1589777 -0.9743986 -0.1589764
vn 0.1913897 0.1938453 -0.9621819
vn 0.5168695 -0.6824173 -0.5168681
vn 0.1589779 -0.9743986 -0.1589765
vn 0.04186784 -0.9767002 -0.2104841
vn -0.04186785 -0.9767002 -0.2104841
g Hatch_0
f 3/3/3 2/2/2 1/1/1
f 2/2/2 4/4/4 1/1/1
f 2/2/2 5/5/5 4/4/4
f 5/5/5 6/6/6 4/4/4
f 1/1/1 4/4/4 7/7/7
f 4/4/4 6/6/6 8/8/8
f 7/7/7 4/4/4 8/8/8
f 9/9/9 1/1/1 7/7/7
f 10/10/10 1/1/1 9/9/9
f 1/1/1 10/10/10 11/11/11
f 7/7/7 8/8/8 12/12/12
f 9/9/9 7/7/7 13/13/13
f 13/13/13 7/7/7 12/12/12
f 14/14/14 10/10/10 9/9/9
f 15/15/15 10/10/10 14/14/14
f 10/10/10 16/16/16 11/11/11
f 17/17/17 9/9/9 13/13/13
f 14/14/14 9/9/9 17/17/17
f 18/18/18 15/15/15 14/14/14
f 19/19/19 15/15/15 18/18/18
f 20/20/20 14/14/14 17/17/17
f 18/18/18 14/14/14 20/20/20
f 20/20/20 17/17/17 21/21/21
f 13/13/13 21/21/21 17/17/17
f 21/21/21 18/18/18 20/20/20
f 22/22/22 19/19/19 18/18/18
f 22/22/22 18/18/18 21/21/21
f 23/23/23 19/19/19 22/22/22
f 24/24/24 21/21/21 13/13/13
f 24/24/24 22/22/22 21/21/21
f 12/12/12 24/24/24 13/13/13
f 25/25/25 23/23/23 22/22/22
f 25/25/25 22/22/22 24/24/24
f 26/26/26 24/24/24 12/12/12
f 26/26/26 25/25/25 24/24/24
f 27/27/27 23/23/23 25/25/25
f 28/28/28 23/23/23 27/27/27
f 29/29/29 28/28/28 27/27/27
f 30/30/30 27/27/27 25/25/25
f 30/30/30 25/25/25 26/26/26
f 29/29/29 27/27/27 31/31/31
f 31/31/31 27/27/27 30/30/30
f 32/32/32 29/29/29 31/31/31
f 33/33/33 26/26/26 12/12/12
f 33/33/33 12/12/12 8/8/8
f 34/34/34 30/30/30 26/26/26
f 34/34/34 26/26/26 33/33/33
f 35/35/35 31/31/31 30/30/30
f 35/35/35 30/30/30 34/34/34
f 36/36/36 33/33/33 8/8/8
f 36/36/36 8/8/8 6/6/6
f 37/37/37 34/34/34 33/33/33
f 33/33/33 36/36/36 37/37/37
f 31/31/31 35/35/35 38/38/38
f 31/31/31 38/38/38 39/39/39
f 40/40/40 35/35/35 34/34/34
f 40/40/40 34/34/34 37/37/37
f 35/35/35 40/40/40 41/41/41
f 35/35/35 41/41/41 38/38/38
f 42/42/42 40/40/40 37/37/37
f 40/40/40 42/42/42 41/41/41
f 37/37/37 43/43/43 42/42/42
f 36/36/36 43/43/43 37/37/37
f 43/43/43 41/41/41 42/42/42
f 44/44/44 36/36/36 6/6/6
f 36/36/36 44/44/44 43/43/43
f 43/43/43 45/45/45 41/41/41
f 45/45/45 38/38/38 41/41/41
f 44/44/44 45/45/45 43/43/43
f 46/46/46 38/38/38 45/45/45
f 47/47/47 46/46/46 45/45/45
f 47/47/47 45/45/45 44/44/44
f 48/48/48 47/47/47 44/44/44
f 44/44/44 6/6/6 49/49/49
f 6/6/6 50/50/50 49/49/49
f 50/50/50 51/51/51 49/49/49
f 51/51/51 52/52/52 49/49/49
f 53/53/53 49/49/49 52/52/52
f 51/51/51 50/50/50 54/54/54
f 50/50/50 55/55/55 54/54/54
f 56/56/56 53/53/53 52/52/52
f 57/57/57 53/53/53 56/56/56
f 38/38/38 57/57/57 39/39/39
f 57/57/57 58/58/58 39/39/39
f 58/58/58 57/57/57 56/56/56
f 54/54/54 55/55/55 59/59/59
f 55/55/55 11/11/11 59/59/59
f 58/58/58 60/60/60 39/39/39
f 61/61/61 39/39/39 60/60/60
f 62/62/62 59/59/59 11/11/11
f 16/16/16 62/62/62 11/11/11
f 63/63/63 61/61/61 60/60/60
f 64/64/64 61/61/61 63/63/63
f 58/58/58 56/56/56 65/65/65
f 58/58/58 66/66/66 60/60/60
f 66/66/66 58/58/58 65/65/65
f 66/66/66 67/67/67 60/60/60
f 63/63/63 60/60/60 67/67/67
f 67/67/67 66/66/66 68/68/68
f 68/68/68 63/63/63 67/67/67
f 66/66/66 65/65/65 68/68/68
f 69/69/69 64/64/64 63/63/63
f 69/69/69 63/63/63 68/68/68
f 65/65/65 56/56/56 70/70/70
f 56/56/56 52/52/52 70/70/70
f 68/68/68 65/65/65 71/71/71
f 71/71/71 69/69/69 68/68/68
f 65/65/65 70/70/70 71/71/71
f 64/64/64 69/69/69 72/72/72
f 73/73/73 64/64/64 72/72/72
f 74/74/74 73/73/73 72/72/72
f 75/75/75 70/70/70 52/52/52
f 51/51/51 75/75/75 52/52/52
f 69/69/69 71/71/71 76/76/76
f 69/69/69 76/76/76 72/72/72
f 74/74/74 72/72/72 77/77/77
f 77/77/77 72/72/72 76/76/76
f 78/78/78 74/74/74 77/77/77
f 71/71/71 70/70/70 79/79/79
f 71/71/71 79/79/79 76/76/76
f 70/70/70 75/75/75 79/79/79
f 75/75/75 51/51/51 80/80/80
f 51/51/51 54/54/54 80/80/80
f 78/78/78 77/77/77 16/16/16
f 81/81/81 78/78/78 16/16/16
f 82/82/82 77/77/77 76/76/76
f 16/16/16 77/77/77 82/82/82
f 82/82/82 76/76/76 79/79/79
f 62/62/62 16/16/16 82/82/82
f 79/79/79 75/75/75 83/83/83
f 83/83/83 82/82/82 79/79/79
f 62/62/62 82/82/82 83/83/83
f 75/75/75 80/80/80 83/83/83
f 84/84/84 62/62/62 83/83/83
f 83/83/83 80/80/80 84/84/84
f 62/62/62 84/84/84 59/59/59
f 54/54/54 59/59/59 85/85/85
f 80/80/80 54/54/54 85/85/85
f 84/84/84 85/85/85 59/59/59
f 85/85/85 84/84/84 80/80/80
