g pCube1
v -0.004412919 -0.01 0
v 0 -0.015 0.014
v 0 -0.015 0
v -0.004412919 -0.01 0.012
v 0 -0.01200001 0.022
v -0.004412919 -0.008 0.018
v -6.656962E-19 0 0.02500001
v -0.004412919 0 0.02000001
v -0.004412919 0.008 0.018
v -7.748634E-19 0.01200001 0.022
v -0.004412919 0.01 0.012
v -4.428111E-19 0.015 0.014
v -0.004412919 0.01 0
v 1.384906E-20 0.015 0
v 0 -0.015 0
v 0.004412919 -0.01 0.012
v 0.004412919 -0.01 0
v 0 -0.015 0.014
v 0.004412919 -0.008 0.018
v 0 -0.01200001 0.022
v 0.004412919 0 0.02000001
v -6.656962E-19 0 0.02500001
v -7.748634E-19 0.01200001 0.022
v 0.004412919 0.008 0.018
v -4.428111E-19 0.015 0.014
v 0.004412919 0.01 0.012
v 1.384906E-20 0.015 0
v 0.004412919 0.01 0
v 1.776357E-17 -0.005 0
v -0.004412919 -0.01 0.012
v -0.004412919 -0.01 0
v 1.776357E-17 -0.005 0.01
v -0.004412919 -0.008 0.018
v 0 -0.004 0.014
v -0.004412919 0 0.02000001
v 3.719813E-10 7.45058E-10 0.015
v 0 0.004 0.014
v -0.004412919 0.008 0.018
v 1.811987E-17 0.005 0.01
v -0.004412919 0.01 0.012
v 1.804112E-17 0.005 0
v -0.004412919 0.01 0
v 0.004412919 -0.01 0
v 0 -0.015 -0.014
v 0 -0.015 0
v 0.004412919 -0.01 -0.012
v 0 -0.012 -0.022
v 0.004412919 -0.007999999 -0.018
v 0 0 -0.025
v 0.004412919 0 -0.02
v 0.004412919 0.007999999 -0.018
v 0 0.012 -0.022
v 0.004412919 0.01 -0.012
v -1.946618E-19 0.015 -0.014
v 0.004412919 0.01 0
v 1.384906E-20 0.015 0
v 0 -0.015 0
v -0.004412919 -0.01 -0.012
v -0.004412919 -0.01 0
v 0 -0.015 -0.014
v -0.004412919 -0.008 -0.018
v 0 -0.012 -0.022
v -0.004412919 0 -0.02000001
v 0 0 -0.025
v 0 0.012 -0.022
v -0.004412919 0.008 -0.018
v -1.946618E-19 0.015 -0.014
v -0.004412919 0.01 -0.012
v 1.384906E-20 0.015 0
v -0.004412919 0.01 0
v -0.004412919 -0.01 0
v 1.776357E-17 -0.005 -0.01
v 1.776357E-17 -0.005 0
v -0.004412919 -0.01 -0.012
v -5.579721E-10 -0.003999993 -0.014
v -0.004412919 -0.008 -0.018
v 1.778341E-17 7.45058E-10 -0.01499999
v -0.004412919 0 -0.02000001
v -0.004412919 0.008 -0.018
v -5.579721E-10 0.003999993 -0.014
v -0.004412919 0.01 -0.012
v 1.74673E-17 0.005 -0.01
v -0.004412919 0.01 0
v 1.804112E-17 0.005 0
v 0.004412919 -0.008 0.018
v 0.004412919 0 0.02000001
v 3.719813E-10 7.45058E-10 0.015
v 0.004412919 0.008 0.018
v 0 -0.004 0.014
v 0 0.004 0.014
v 0.004412919 -0.01 0.012
v 0.004412919 0.01 0.012
v 1.776357E-17 -0.005 0.01
v 1.811987E-17 0.005 0.01
v 0.004412919 -0.01 0
v 0.004412919 0.01 0
v 1.776357E-17 -0.005 0
v 1.804112E-17 0.005 0
v 0.004412919 -0.01 -0.012
v 0.004412919 0.01 -0.012
v 1.776357E-17 -0.005 -0.01
v 1.74673E-17 0.005 -0.01
v 0.004412919 -0.007999999 -0.018
v 0.004412919 0.007999999 -0.018
v -5.579721E-10 -0.003999993 -0.014
v -5.579721E-10 0.003999993 -0.014
v 0.004412919 0 -0.02
v 1.778341E-17 7.45058E-10 -0.01499999
vt 0.25 0
vt 0.625 0
vt 0.75 0
vt 0.375 0
vt 0.625 0
vt 0.375 0
vt 0.625 0
vt 0.375 0
vt 0.375 0
vt 0.625 0
vt 0.375 0
vt 0.625 0
vt 0.25 0
vt 0.75 0
vt 0.75 0
vt 0.625 0.25
vt 0.75 0.3125
vt 0.625 0
vt 0.625 0.25
vt 0.625 0
vt 0.625 0.25
vt 0.625 0
vt 0.625 0
vt 0.625 0.25
vt 0.625 0
vt 0.625 0.25
vt 0.75 0
vt 0.6875 0.375
vt 0.3125 0.375
vt 0.375 0
vt 0.25 0
vt 0.375 0.25
vt 0.375 0
vt 0.375 0.25
vt 0.375 0
vt 0.375 0.25
vt 0.375 0.25
vt 0.375 0
vt 0.375 0.25
vt 0.375 0
vt 0.25 0.3125
vt 0.25 0
vt 0.75 0.3125
vt 0.625 0.75
vt 0.625 0.875
vt 0.625 0.5
vt 0.625 0.75
vt 0.625 0.5
vt 0.625 0.75
vt 0.625 0.5
vt 0.625 0.5
vt 0.625 0.75
vt 0.625 0.5
vt 0.625 0.75
vt 0.6875 0.375
vt 0.625 0.875
vt 0.625 0.875
vt 0.375 0.75
vt 0.375 0.875
vt 0.625 0.75
vt 0.375 0.75
vt 0.625 0.75
vt 0.375 0.75
vt 0.625 0.75
vt 0.625 0.75
vt 0.375 0.75
vt 0.625 0.75
vt 0.375 0.75
vt 0.625 0.875
vt 0.375 0.875
vt 0.375 0.875
vt 0.375 0.5
vt 0.3125 0.375
vt 0.375 0.75
vt 0.375 0.5
vt 0.375 0.75
vt 0.375 0.5
vt 0.375 0.75
vt 0.375 0.75
vt 0.375 0.5
vt 0.375 0.75
vt 0.375 0.5
vt 0.375 0.875
vt 0.25 0.3125
vt 0.625 0.25
vt 0.625 0.25
vt 0.375 0.25
vt 0.625 0.25
vt 0.375 0.25
vt 0.375 0.25
vt 0.625 0.25
vt 0.625 0.25
vt 0.375 0.25
vt 0.375 0.25
vt 0.75 0.3125
vt 0.6875 0.375
vt 0.3125 0.375
vt 0.25 0.3125
vt 0.625 0.5
vt 0.625 0.5
vt 0.375 0.5
vt 0.375 0.5
vt 0.625 0.5
vt 0.625 0.5
vt 0.375 0.5
vt 0.375 0.5
vt 0.625 0.5
vt 0.375 0.5
vn -0.749752 -0.661719 0
vn -0.7609837 -0.6422333 0.09187079
vn -0.749752 -0.661719 0
vn -0.7589972 -0.6472385 0.07075053
vn -0.7899237 -0.3800536 0.4812272
vn -0.7887152 -0.3682775 0.4922398
vn -0.7497522 0 0.6617187
vn -0.7497522 0 0.6617187
vn -0.7887152 0.3682775 0.4922398
vn -0.7899237 0.3800536 0.4812272
vn -0.7589972 0.6472385 0.0707505
vn -0.7609837 0.6422333 0.09187079
vn -0.7497519 0.661719 0
vn -0.7497519 0.661719 0
vn 0.749752 -0.661719 0
vn 0.7589972 -0.6472385 0.07075052
vn 0.749752 -0.661719 0
vn 0.7609837 -0.6422333 0.09187079
vn 0.7887152 -0.3682775 0.4922399
vn 0.7899238 -0.3800536 0.4812273
vn 0.7497522 0 0.6617188
vn 0.7497522 0 0.6617188
vn 0.7899238 0.3800536 0.4812273
vn 0.7887152 0.3682774 0.4922399
vn 0.7609838 0.6422333 0.09187079
vn 0.7589972 0.6472385 0.0707505
vn 0.7497519 0.661719 0
vn 0.7497519 0.661719 0
vn -0.7497519 0.661719 0
vn -0.7571816 0.6493284 -0.07105417
vn -0.7497519 0.661719 0
vn -0.755543 0.6530609 -0.05163454
vn -0.7933492 0.4049678 -0.4545307
vn -0.7929546 0.3990366 -0.4604268
vn -0.7497522 0 -0.6617187
vn -0.7497522 0 -0.6617188
vn -0.7929545 -0.3990367 -0.4604267
vn -0.7933492 -0.4049678 -0.4545307
vn -0.755543 -0.6530609 -0.05163455
vn -0.7571816 -0.6493284 -0.07105418
vn -0.7497519 -0.661719 0
vn -0.7497519 -0.661719 0
vn 0.749752 -0.661719 0
vn 0.7609837 -0.6422332 -0.09187088
vn 0.749752 -0.661719 0
vn 0.7589972 -0.6472385 -0.07075061
vn 0.7899236 -0.3800536 -0.4812276
vn 0.788715 -0.3682774 -0.4922401
vn 0.7497519 0 -0.661719
vn 0.7497519 0 -0.661719
vn 0.7887151 0.3682774 -0.4922401
vn 0.7899237 0.3800535 -0.4812276
vn 0.7589971 0.6472385 -0.07075061
vn 0.7609837 0.6422333 -0.0918709
vn 0.7497519 0.661719 0
vn 0.7497519 0.661719 0
vn -0.749752 -0.661719 0
vn -0.7589972 -0.6472385 -0.07075061
vn -0.749752 -0.661719 0
vn -0.7609837 -0.6422332 -0.09187088
vn -0.7887149 -0.3682777 -0.4922401
vn -0.7899235 -0.3800537 -0.4812276
vn -0.7497517 0 -0.6617193
vn -0.7497517 0 -0.6617193
vn -0.7899235 0.3800537 -0.4812277
vn -0.7887149 0.3682777 -0.4922402
vn -0.7609837 0.6422333 -0.0918709
vn -0.7589972 0.6472385 -0.07075061
vn -0.7497519 0.661719 0
vn -0.7497519 0.661719 0
vn -0.7497519 0.661719 0
vn -0.7555432 0.6530608 0.05163471
vn -0.7497519 0.661719 0
vn -0.7571816 0.6493283 0.07105435
vn -0.7929548 0.399036 0.4604268
vn -0.7933495 0.4049674 0.4545305
vn -0.7497527 0 0.6617182
vn -0.7497526 0 0.6617183
vn -0.7933495 -0.4049673 0.4545304
vn -0.792955 -0.399036 0.4604267
vn -0.7571817 -0.6493282 0.07105435
vn -0.7555432 -0.6530608 0.05163471
vn -0.7497519 -0.661719 0
vn -0.7497519 -0.661719 0
vn 0.7933491 0.4049677 -0.4545308
vn 0.7497522 0 -0.6617187
vn 0.7497522 0 -0.6617187
vn 0.7933493 -0.4049677 -0.4545307
vn 0.7929545 0.3990366 -0.4604267
vn 0.7929547 -0.3990366 -0.4604267
vn 0.7571816 0.6493284 -0.07105417
vn 0.7571816 -0.6493284 -0.07105417
vn 0.755543 0.6530609 -0.05163454
vn 0.7555431 -0.6530609 -0.05163455
vn 0.7497519 0.661719 0
vn 0.7497519 -0.661719 0
vn 0.7497519 0.661719 0
vn 0.7497519 -0.661719 0
vn 0.7571816 0.6493283 0.0710543
vn 0.7571817 -0.6493282 0.07105431
vn 0.7555432 0.6530608 0.05163468
vn 0.7555432 -0.6530608 0.0516347
vn 0.7933494 0.4049674 0.4545308
vn 0.7933494 -0.4049674 0.4545307
vn 0.7929547 0.399036 0.4604271
vn 0.7929547 -0.399036 0.460427
vn 0.7497521 0 0.6617189
vn 0.749752 0 0.6617189
g pCube1_0
f 3/3/3 2/2/2 1/1/1
f 2/2/2 4/4/4 1/1/1
f 2/2/2 5/5/5 4/4/4
f 5/5/5 6/6/6 4/4/4
f 5/5/5 7/7/7 6/6/6
f 7/7/7 8/8/8 6/6/6
f 8/8/8 7/7/7 9/9/9
f 7/7/7 10/10/10 9/9/9
f 9/9/9 10/10/10 11/11/11
f 10/10/10 12/12/12 11/11/11
f 11/11/11 12/12/12 13/13/13
f 12/12/12 14/14/14 13/13/13
f 17/17/17 16/16/16 15/15/15
f 16/16/16 18/18/18 15/15/15
f 16/16/16 19/19/19 18/18/18
f 19/19/19 20/20/20 18/18/18
f 19/19/19 21/21/21 20/20/20
f 21/21/21 22/22/22 20/20/20
f 22/22/22 21/21/21 23/23/23
f 21/21/21 24/24/24 23/23/23
f 23/23/23 24/24/24 25/25/25
f 24/24/24 26/26/26 25/25/25
f 25/25/25 26/26/26 27/27/27
f 26/26/26 28/28/28 27/27/27
f 31/31/31 30/30/30 29/29/29
f 30/30/30 32/32/32 29/29/29
f 30/30/30 33/33/33 32/32/32
f 33/33/33 34/34/34 32/32/32
f 33/33/33 35/35/35 34/34/34
f 35/35/35 36/36/36 34/34/34
f 36/36/36 35/35/35 37/37/37
f 35/35/35 38/38/38 37/37/37
f 37/37/37 38/38/38 39/39/39
f 38/38/38 40/40/40 39/39/39
f 39/39/39 40/40/40 41/41/41
f 40/40/40 42/42/42 41/41/41
f 45/45/45 44/44/44 43/43/43
f 44/44/44 46/46/46 43/43/43
f 44/44/44 47/47/47 46/46/46
f 47/47/47 48/48/48 46/46/46
f 47/47/47 49/49/49 48/48/48
f 49/49/49 50/50/50 48/48/48
f 50/50/50 49/49/49 51/51/51
f 49/49/49 52/52/52 51/51/51
f 51/51/51 52/52/52 53/53/53
f 52/52/52 54/54/54 53/53/53
f 53/53/53 54/54/54 55/55/55
f 54/54/54 56/56/56 55/55/55
f 59/59/59 58/58/58 57/57/57
f 58/58/58 60/60/60 57/57/57
f 58/58/58 61/61/61 60/60/60
f 61/61/61 62/62/62 60/60/60
f 61/61/61 63/63/63 62/62/62
f 63/63/63 64/64/64 62/62/62
f 64/64/64 63/63/63 65/65/65
f 63/63/63 66/66/66 65/65/65
f 65/65/65 66/66/66 67/67/67
f 66/66/66 68/68/68 67/67/67
f 67/67/67 68/68/68 69/69/69
f 68/68/68 70/70/70 69/69/69
f 73/73/73 72/72/72 71/71/71
f 72/72/72 74/74/74 71/71/71
f 72/72/72 75/75/75 74/74/74
f 75/75/75 76/76/76 74/74/74
f 75/75/75 77/77/77 76/76/76
f 77/77/77 78/78/78 76/76/76
f 78/78/78 77/77/77 79/79/79
f 77/77/77 80/80/80 79/79/79
f 79/79/79 80/80/80 81/81/81
f 80/80/80 82/82/82 81/81/81
f 81/81/81 82/82/82 83/83/83
f 82/82/82 84/84/84 83/83/83
f 87/87/87 86/86/86 85/85/85
f 86/86/86 87/87/87 88/88/88
f 89/89/89 87/87/87 85/85/85
f 87/87/87 90/90/90 88/88/88
f 89/89/89 85/85/85 91/91/91
f 88/88/88 90/90/90 92/92/92
f 93/93/93 89/89/89 91/91/91
f 90/90/90 94/94/94 92/92/92
f 93/93/93 91/91/91 95/95/95
f 92/92/92 94/94/94 96/96/96
f 97/97/97 93/93/93 95/95/95
f 94/94/94 98/98/98 96/96/96
f 95/95/95 99/99/99 97/97/97
f 100/100/100 96/96/96 98/98/98
f 99/99/99 101/101/101 97/97/97
f 102/102/102 100/100/100 98/98/98
f 99/99/99 103/103/103 101/101/101
f 104/104/104 100/100/100 102/102/102
f 103/103/103 105/105/105 101/101/101
f 106/106/106 104/104/104 102/102/102
f 103/103/103 107/107/107 105/105/105
f 107/107/107 104/104/104 106/106/106
f 107/107/107 108/108/108 105/105/105
f 108/108/108 107/107/107 106/106/106
