g Plane.006
v 0.02506516 2.59049E-08 -0.2403476
v -0.02738689 2.59049E-08 -0.2403476
v 0 2.689328E-08 -0.2468935
v 0.04294866 2.320456E-08 -0.2224642
v -0.0452704 2.320456E-08 -0.2224642
v 0.04949448 1.951584E-08 -0.1980348
v -0.05181621 1.951584E-08 -0.1980348
v 0.04949448 -7.323224E-10 -0.03052334
v -0.05181621 -7.323224E-10 -0.03052334
v 0.04294866 -4.421048E-09 -0.006094016
v -0.0452704 -4.421048E-09 -0.006094016
v 0.02506516 -7.121381E-09 0.01178948
v -0.02738689 -7.121381E-09 0.01178948
v 0 -8.109772E-09 0.0183353
v 0.124254 1.17916E-08 -0.1379618
v 0.07389302 1.17916E-08 -0.1379618
v 0.09918885 1.277999E-08 -0.1445076
v 0.1421375 9.091266E-09 -0.1200783
v 0.0560095 9.091266E-09 -0.1200783
v 0.1486833 5.402541E-09 -0.09564892
v 0.04946369 5.402541E-09 -0.09564892
v 0.1486833 -7.855027E-09 0.03100097
v 0.04946369 -7.855027E-09 0.03100097
v 0.1421375 -1.154375E-08 0.05543028
v 0.0560095 -1.154375E-08 0.05543028
v 0.124254 -1.424409E-08 0.07331379
v 0.07389302 -1.424409E-08 0.07331379
v 0.09918885 -1.523247E-08 0.0798596
v 0.147489 0.002731505 -0.1744889
v 0.07802828 0.002731507 -0.1810347
v 0.1230597 0.002731507 -0.1810347
v 0.05359896 0.002731505 -0.1744889
v 0.1653726 0.002731503 -0.1566054
v 0.03571545 0.002731503 -0.1566054
v 0.1719184 0.002731499 -0.1315403
v 0.02916963 0.002731499 -0.1315403
v 0.1653726 0.002731495 -0.1064751
v 0.03571545 0.002731495 -0.1064751
v 0.147489 0.002731493 -0.08859158
v 0.05359896 0.002731493 -0.08859159
v 0.07802827 0.002731492 -0.08204576
v 0.1230597 0.002731492 -0.08204576
v 0.04671368 0.00273149 -0.07429698
v -0.02274709 0.002731491 -0.08084281
v 0.02228435 0.002731491 -0.08084281
v -0.04717642 0.00273149 -0.07429698
v 0.0645972 0.002731487 -0.05641349
v -0.06505993 0.002731487 -0.05641349
v 0.07114301 0.002731483 -0.03134833
v -0.07160575 0.002731483 -0.03134833
v 0.0645972 0.00273148 -0.006283178
v -0.06505993 0.00273148 -0.006283178
v 0.04671368 0.002731477 0.01160033
v -0.04717642 0.002731477 0.01160032
v -0.02274711 0.002731476 0.01814615
v 0.02228435 0.002731476 0.01814615
vt 0.3619431 0.03391273
vt 0.6039527 0.03391273
vt 0.4829479 0.004000979
vt 0.2780693 0.107889
vt 0.6853657 0.107889
vt 0.2440078 0.1988578
vt 0.719427 0.1988578
vt 0.2440078 0.8010794
vt 0.719427 0.8010794
vt 0.2787089 0.8920482
vt 0.683016 0.8902026
vt 0.3619431 0.9641787
vt 0.6039527 0.9641787
vt 0.4829479 0.9947058
vt 0.3619431 0.03391273
vt 0.6039527 0.03391273
vt 0.4829479 0.004000979
vt 0.2780693 0.107889
vt 0.6853657 0.107889
vt 0.2440078 0.1988578
vt 0.719427 0.1988578
vt 0.2440078 0.8010794
vt 0.719427 0.8010794
vt 0.2787089 0.8920482
vt 0.683016 0.8902026
vt 0.3619431 0.9641787
vt 0.6039527 0.9641787
vt 0.4829479 0.9947058
vt 0.6853657 0.107889
vt 0.719427 0.8010794
vt 0.719427 0.1988578
vt 0.683016 0.8902026
vt 0.6039527 0.03391273
vt 0.6039527 0.9641787
vt 0.4829479 0.004000979
vt 0.4829479 0.9947058
vt 0.3619431 0.03391273
vt 0.3619431 0.9641787
vt 0.2780693 0.107889
vt 0.2787089 0.8920482
vt 0.2440078 0.8010794
vt 0.2440078 0.1988578
vt 0.6853657 0.107889
vt 0.719427 0.8010794
vt 0.719427 0.1988578
vt 0.683016 0.8902026
vt 0.6039527 0.03391273
vt 0.6039527 0.9641787
vt 0.4829479 0.004000979
vt 0.4829479 0.9947058
vt 0.3619431 0.03391273
vt 0.3619431 0.9641787
vt 0.2780693 0.107889
vt 0.2787089 0.8920482
vt 0.2440078 0.8010794
vt 0.2440078 0.1988578
vn 0 1 1.300983E-07
vn 0 1 1.300983E-07
vn 0 1 1.300983E-07
vn 0 1 1.300983E-07
vn 0 1 1.300983E-07
vn 0 1 1.300983E-07
vn 0 1 1.300983E-07
vn 0 1 1.300983E-07
vn 0 1 1.300983E-07
vn 0 1 1.300983E-07
vn 0 1 1.300983E-07
vn 0 1 1.300983E-07
vn 0 1 1.300983E-07
vn 0 1 1.300983E-07
vn 0 1 1.216962E-07
vn 0 1 1.216962E-07
vn 0 1 1.216962E-07
vn 0 1 1.216962E-07
vn 0 1 1.216962E-07
vn 0 1 1.216962E-07
vn 0 1 1.216962E-07
vn 0 1 1.216962E-07
vn 0 1 1.216962E-07
vn 0 1 1.216962E-07
vn 0 1 1.216962E-07
vn 0 1 1.216962E-07
vn 0 1 1.216962E-07
vn 0 1 1.216962E-07
vn 0 1 1.513926E-07
vn 0 1 1.513926E-07
vn 0 1 1.513926E-07
vn 0 1 1.513926E-07
vn 0 1 1.513926E-07
vn 0 1 1.513926E-07
vn 0 1 1.513926E-07
vn 0 1 1.513926E-07
vn 0 1 1.513926E-07
vn 0 1 1.513926E-07
vn 0 1 1.513926E-07
vn 0 1 1.513926E-07
vn 0 1 1.513926E-07
vn 0 1 1.513926E-07
vn 0 1 1.524031E-07
vn 0 1 1.524031E-07
vn 0 1 1.524031E-07
vn 0 1 1.524031E-07
vn 0 1 1.524031E-07
vn 0 1 1.524031E-07
vn 0 1 1.524031E-07
vn 0 1 1.524031E-07
vn 0 1 1.524031E-07
vn 0 1 1.524031E-07
vn 0 1 1.524031E-07
vn 0 1 1.524031E-07
vn 0 1 1.524031E-07
vn 0 1 1.524031E-07
g Plane.006_0
f 3/3/3 2/2/2 1/1/1
f 4/4/4 1/1/1 2/2/2
f 5/5/5 4/4/4 2/2/2
f 6/6/6 4/4/4 5/5/5
f 7/7/7 6/6/6 5/5/5
f 8/8/8 6/6/6 7/7/7
f 9/9/9 8/8/8 7/7/7
f 10/10/10 8/8/8 9/9/9
f 11/11/11 10/10/10 9/9/9
f 12/12/12 10/10/10 11/11/11
f 13/13/13 12/12/12 11/11/11
f 14/14/14 12/12/12 13/13/13
f 17/17/17 16/16/16 15/15/15
f 18/18/18 15/15/15 16/16/16
f 19/19/19 18/18/18 16/16/16
f 20/20/20 18/18/18 19/19/19
f 21/21/21 20/20/20 19/19/19
f 22/22/22 20/20/20 21/21/21
f 23/23/23 22/22/22 21/21/21
f 24/24/24 22/22/22 23/23/23
f 25/25/25 24/24/24 23/23/23
f 26/26/26 24/24/24 25/25/25
f 27/27/27 26/26/26 25/25/25
f 28/28/28 26/26/26 27/27/27
f 31/31/31 30/30/30 29/29/29
f 32/32/32 29/29/29 30/30/30
f 33/33/33 29/29/29 32/32/32
f 34/34/34 33/33/33 32/32/32
f 35/35/35 33/33/33 34/34/34
f 36/36/36 35/35/35 34/34/34
f 37/37/37 35/35/35 36/36/36
f 38/38/38 37/37/37 36/36/36
f 39/39/39 37/37/37 38/38/38
f 40/40/40 39/39/39 38/38/38
f 41/41/41 39/39/39 40/40/40
f 42/42/42 39/39/39 41/41/41
f 45/45/45 44/44/44 43/43/43
f 46/46/46 43/43/43 44/44/44
f 47/47/47 43/43/43 46/46/46
f 48/48/48 47/47/47 46/46/46
f 49/49/49 47/47/47 48/48/48
f 50/50/50 49/49/49 48/48/48
f 51/51/51 49/49/49 50/50/50
f 52/52/52 51/51/51 50/50/50
f 53/53/53 51/51/51 52/52/52
f 54/54/54 53/53/53 52/52/52
f 55/55/55 53/53/53 54/54/54
f 56/56/56 53/53/53 55/55/55
