g Plane
v -0.2961731 0 -0.2910461
v 0.2610731 0 -0.3004512
v -0.2610731 0 -0.3004512
v 0.2961731 0 -0.2910461
v -0.3218681 0 -0.2653511
v 0.3218681 0 -0.2653511
v -0.3312732 0 -0.230251
v 0.3312732 0 -0.230251
v -0.3312732 0 0.2119924
v 0.3312732 0 0.2119924
v -0.3218681 0 0.2470925
v 0.3218681 0 0.2470925
v -0.2961731 0 0.2727875
v 0.2961731 0 0.2727875
v -0.2610731 0 0.2821926
v 0.2610731 0 0.2821926
v -0.2961731 0 -0.2910461
v -0.2693997 0 -0.2259649
v -0.3218681 0 -0.2653511
v -0.2478932 0 -0.2474713
v -0.2772716 0 -0.1965865
v -0.2610731 0 -0.3004512
v -0.3312732 0 -0.230251
v -0.2185149 0 -0.2553432
v -0.2772716 0 0.178328
v 0.2610731 0 -0.3004512
v -0.3312732 0 0.2119924
v 0.2185149 0 -0.2553432
v -0.2693997 0 0.2077063
v 0.2961731 0 -0.2910461
v -0.3218681 0 0.2470925
v 0.2478932 0 -0.2474713
v -0.2478932 0 0.2292127
v 0.3218681 0 -0.2653511
v -0.2961731 0 0.2727875
v 0.2693997 0 -0.2259649
v -0.2185149 0 0.2370847
v 0.3312732 0 -0.230251
v -0.2610731 0 0.2821926
v 0.2772716 0 -0.1965865
v 0.2185149 0 0.2370847
v 0.3312732 0 0.2119924
v 0.2610731 0 0.2821926
v 0.2772716 0 0.178328
v 0.2478932 0 0.2292127
v 0.3218681 0 0.2470925
v 0.2961731 0 0.2727875
v 0.2693997 0 0.2077063
vt 0.9365773 0.01699412
vt 0.1268456 0
vt 0.8731544 0
vt 0.06342279 0.01699412
vt 0.9830059 0.0634228
vt 0.01699412 0.0634228
vt 1 0.1268456
vt 0 0.1268456
vt 1 0.8731544
vt 0 0.8731544
vt 0.9830059 0.9365773
vt 0.01699412 0.9365773
vt 0.9365773 0.9830059
vt 0.06342279 0.9830058
vt 0.8731544 1
vt 0.1268456 1
vt 0.9365773 0.01699412
vt 0.9830059 0.0634228
vt 0.9830059 0.0634228
vt 0.9365773 0.01699412
vt 1 0.1268456
vt 0.8731544 0
vt 1 0.1268456
vt 0.8731544 0
vt 1 0.8731544
vt 0.1268456 0
vt 1 0.8731544
vt 0.1268456 0
vt 0.9830059 0.9365773
vt 0.06342279 0.01699412
vt 0.9830059 0.9365773
vt 0.06342279 0.01699412
vt 0.9365773 0.9830059
vt 0.01699412 0.0634228
vt 0.9365773 0.9830059
vt 0.01699412 0.0634228
vt 0.8731544 1
vt 0 0.1268456
vt 0.8731544 1
vt 0 0.1268456
vt 0.1268456 1
vt 0 0.8731544
vt 0.1268456 1
vt 0 0.8731544
vt 0.06342279 0.9830058
vt 0.01699412 0.9365773
vt 0.06342279 0.9830058
vt 0.01699412 0.9365773
vn 0 -1 0
vn 0 -1 0
vn 0 -1 0
vn 0 -1 0
vn 0 -1 0
vn 0 -1 0
vn 0 -1 0
vn 0 -1 0
vn 0 -1 0
vn 0 -1 0
vn 0 -1 0
vn 0 -1 0
vn 0 -1 0
vn 0 -1 0
vn 0 -1 0
vn 0 -1 0
vn 0 1 0
vn 0 1 0
vn 0 1 0
vn 0 1 0
vn 0 1 0
vn 0 1 0
vn 0 1 0
vn 0 1 0
vn 0 1 0
vn 0 1 0
vn 0 1 0
vn 0 1 0
vn 0 1 0
vn 0 1 0
vn 0 1 0
vn 0 1 0
vn 0 1 0
vn 0 1 0
vn 0 1 0
vn 0 1 0
vn 0 1 0
vn 0 1 0
vn 0 1 0
vn 0 1 0
vn 0 1 0
vn 0 1 0
vn 0 1 0
vn 0 1 0
vn 0 1 0
vn 0 1 0
vn 0 1 0
vn 0 1 0
g Plane_0
f 3/3/3 2/2/2 1/1/1
f 4/4/4 1/1/1 2/2/2
f 5/5/5 1/1/1 4/4/4
f 6/6/6 5/5/5 4/4/4
f 7/7/7 5/5/5 6/6/6
f 8/8/8 7/7/7 6/6/6
f 9/9/9 7/7/7 8/8/8
f 10/10/10 9/9/9 8/8/8
f 11/11/11 9/9/9 10/10/10
f 12/12/12 11/11/11 10/10/10
f 13/13/13 11/11/11 12/12/12
f 14/14/14 13/13/13 12/12/12
f 15/15/15 13/13/13 14/14/14
f 16/16/16 15/15/15 14/14/14
f 19/19/19 18/18/18 17/17/17
f 18/18/18 20/20/20 17/17/17
f 21/21/21 18/18/18 19/19/19
f 17/17/17 20/20/20 22/22/22
f 23/23/23 21/21/21 19/19/19
f 20/20/20 24/24/24 22/22/22
f 25/25/25 21/21/21 23/23/23
f 22/22/22 24/24/24 26/26/26
f 27/27/27 25/25/25 23/23/23
f 24/24/24 28/28/28 26/26/26
f 29/29/29 25/25/25 27/27/27
f 26/26/26 28/28/28 30/30/30
f 31/31/31 29/29/29 27/27/27
f 28/28/28 32/32/32 30/30/30
f 33/33/33 29/29/29 31/31/31
f 30/30/30 32/32/32 34/34/34
f 35/35/35 33/33/33 31/31/31
f 32/32/32 36/36/36 34/34/34
f 37/37/37 33/33/33 35/35/35
f 34/34/34 36/36/36 38/38/38
f 39/39/39 37/37/37 35/35/35
f 36/36/36 40/40/40 38/38/38
f 41/41/41 37/37/37 39/39/39
f 38/38/38 40/40/40 42/42/42
f 43/43/43 41/41/41 39/39/39
f 40/40/40 44/44/44 42/42/42
f 45/45/45 41/41/41 43/43/43
f 42/42/42 44/44/44 46/46/46
f 47/47/47 45/45/45 43/43/43
f 44/44/44 48/48/48 46/46/46
f 48/48/48 45/45/45 47/47/47
f 46/46/46 48/48/48 47/47/47
g Plane_1
f 28/28/28 24/24/24 32/32/32
f 20/20/20 32/32/32 24/24/24
f 36/36/36 32/32/32 20/20/20
f 18/18/18 36/36/36 20/20/20
f 40/40/40 36/36/36 18/18/18
f 21/21/21 40/40/40 18/18/18
f 44/44/44 40/40/40 21/21/21
f 25/25/25 44/44/44 21/21/21
f 48/48/48 44/44/44 25/25/25
f 29/29/29 48/48/48 25/25/25
f 45/45/45 48/48/48 29/29/29
f 33/33/33 45/45/45 29/29/29
f 41/41/41 45/45/45 33/33/33
f 37/37/37 41/41/41 33/33/33
