g Slot
v -0.4702478 0.0007217801 0.5225
v -0.5071941 0.0007217801 0.5071964
v -0.5004143 0.03088833 0.5004165
v -0.4702478 0.03766813 0.5071964
v 0.4702522 0.03766813 0.5071964
v 0.4702522 0.0007217801 0.5225
v 0.5004188 0.03088833 0.5004165
v 0.5071986 0.0007217801 0.5071964
v 0.5225022 0.0007217801 0.47025
v 0.5071986 0.03766813 0.47025
v 0.5071986 0.03766813 -0.47025
v 0.5225022 0.0007217801 -0.47025
v 0.4702522 0.0529718 0.47025
v 0.4702522 0.03766813 0.5071964
v -0.4702478 0.03766813 0.5071964
v 0.5004188 0.03088833 -0.5004165
v 0.5071986 0.0007217801 -0.5071964
v 0.4702522 0.0007217801 -0.5225
v 0.4702522 0.0529718 -0.47025
v 0.4702522 0.03766813 -0.5071964
v -0.4702478 0.03766813 -0.5071964
v -0.4702478 0.0007217801 -0.5225
v -0.5004143 0.03088833 -0.5004165
v -0.5071941 0.0007217801 -0.5071964
v 0.4702522 0.03766813 -0.5071964
v -0.4702478 0.0529718 0.47025
v -0.5004143 0.03088833 0.5004165
v -0.5071941 0.03766813 0.47025
v -0.5071941 0.03766813 -0.47025
v -0.4702478 0.0529718 -0.47025
v -0.4702478 0.03766813 -0.5071964
v -0.5004143 0.03088833 -0.5004165
v -0.5224978 0.0007217801 0.47025
v -0.5004143 0.03088833 0.5004165
v -0.5071941 0.0007217801 0.5071964
v -0.5071941 0.03766813 0.47025
v -0.5224978 0.0007217801 -0.47025
v -0.5071941 0.03766813 -0.47025
v -0.5004143 0.03088833 -0.5004165
v -0.5071941 0.0007217801 -0.5071964
vt 0.6125 0.9875
vt 0.6125 1
vt 0.625 0.9947169
vt 0.625 0.9875
vt 0.625 0.7625
vt 0.6125 0.7625
vt 0.625 0.748239
vt 0.6125 0.75
vt 0.6125 0.7375
vt 0.625 0.7375
vt 0.625 0.5125
vt 0.6125 0.5125
vt 0.6375 0.7375
vt 0.6375 0.75
vt 0.8625 0.75
vt 0.623239 0.5
vt 0.6125 0.5
vt 0.6125 0.4875
vt 0.6375 0.5125
vt 0.625 0.4875
vt 0.625 0.2625
vt 0.6125 0.2625
vt 0.6197169 0.25
vt 0.6125 0.25
vt 0.6375 0.5
vt 0.8625 0.7375
vt 0.875 0.7447169
vt 0.875 0.7375
vt 0.875 0.5125
vt 0.8625 0.5125
vt 0.8625 0.5
vt 0.8697169 0.5
vt 0.6125 0.0125
vt 0.6197169 0
vt 0.6125 0
vt 0.625 0.0125
vt 0.6125 0.2375
vt 0.625 0.2375
vt 0.625 0.2447169
vt 0.6125 0.25
vn -0.1567241 0.3602715 0.919588
vn -0.6612244 0.354349 0.6612256
vn -0.5773506 0.57735 0.5773503
vn -0.1725627 0.6964989 0.6964994
vn 0.1725622 0.6964989 0.6964995
vn 0.1567236 0.3602715 0.919588
vn 0.5773506 0.5773501 0.5773501
vn 0.6612247 0.3543487 0.6612252
vn 0.919588 0.3602715 0.1567237
vn 0.6964995 0.6964989 0.1725622
vn 0.6964995 0.696499 -0.1725622
vn 0.9195879 0.3602715 -0.1567238
vn 0.1793655 0.9672931 0.1793654
vn 0.1725622 0.6964989 0.6964995
vn -0.1725627 0.6964989 0.6964994
vn 0.5773506 0.57735 -0.5773503
vn 0.6612246 0.3543486 -0.6612254
vn 0.1567236 0.3602713 -0.9195881
vn 0.1793656 0.9672931 -0.1793654
vn 0.1725622 0.6964988 -0.6964996
vn -0.1725626 0.6964989 -0.6964994
vn -0.1567241 0.3602716 -0.9195879
vn -0.5773506 0.5773501 -0.5773501
vn -0.6612245 0.3543491 -0.6612253
vn 0.1725622 0.6964988 -0.6964996
vn -0.179366 0.967293 0.1793653
vn -0.5773506 0.57735 0.5773503
vn -0.6964993 0.696499 0.1725625
vn -0.6964993 0.696499 -0.1725624
vn -0.179366 0.967293 -0.1793653
vn -0.1725626 0.6964989 -0.6964994
vn -0.5773506 0.5773501 -0.5773501
vn -0.9195874 0.3602727 0.1567243
vn -0.5773506 0.57735 0.5773503
vn -0.6612244 0.354349 0.6612256
vn -0.6964993 0.696499 0.1725625
vn -0.9195876 0.3602727 -0.1567243
vn -0.6964993 0.696499 -0.1725624
vn -0.5773506 0.5773501 -0.5773501
vn -0.6612245 0.3543491 -0.6612253
g Slot_0
f 3/3/3 2/2/2 1/1/1
f 4/4/4 3/3/3 1/1/1
f 4/4/4 1/1/1 5/5/5
f 1/1/1 6/6/6 5/5/5
f 7/7/7 5/5/5 6/6/6
f 8/8/8 7/7/7 6/6/6
f 7/7/7 8/8/8 9/9/9
f 10/10/10 7/7/7 9/9/9
f 10/10/10 9/9/9 11/11/11
f 9/9/9 12/12/12 11/11/11
f 7/7/7 10/10/10 13/13/13
f 14/14/14 7/7/7 13/13/13
f 15/15/15 14/14/14 13/13/13
f 16/16/16 11/11/11 12/12/12
f 17/17/17 16/16/16 12/12/12
f 16/16/16 17/17/17 18/18/18
f 10/10/10 11/11/11 19/19/19
f 13/13/13 10/10/10 19/19/19
f 11/11/11 16/16/16 19/19/19
f 20/20/20 16/16/16 18/18/18
f 20/20/20 18/18/18 21/21/21
f 18/18/18 22/22/22 21/21/21
f 23/23/23 21/21/21 22/22/22
f 24/24/24 23/23/23 22/22/22
f 16/16/16 25/25/25 19/19/19
f 26/26/26 15/15/15 13/13/13
f 26/26/26 13/13/13 19/19/19
f 27/27/27 15/15/15 26/26/26
f 28/28/28 27/27/27 26/26/26
f 29/29/29 28/28/28 26/26/26
f 19/19/19 25/25/25 30/30/30
f 30/30/30 26/26/26 19/19/19
f 30/30/30 29/29/29 26/26/26
f 25/25/25 31/31/31 30/30/30
f 32/32/32 29/29/29 30/30/30
f 31/31/31 32/32/32 30/30/30
f 35/35/35 34/34/34 33/33/33
f 34/34/34 36/36/36 33/33/33
f 37/37/37 33/33/33 36/36/36
f 38/38/38 37/37/37 36/36/36
f 38/38/38 39/39/39 37/37/37
f 39/39/39 40/40/40 37/37/37
