g Slot_Lock
v 0.379387 5.626262E-08 0.04426639
v -0.3793868 -0.01145691 0.04275804
v -0.3793868 5.626262E-08 0.0442664
v 0.379387 -0.01145691 0.04275804
v -0.3793868 -0.02213312 0.03833581
v 0.379387 -0.02213312 0.03833579
v -0.3793868 -0.03130103 0.03130108
v 0.3793869 -0.03130103 0.03130107
v -0.3793868 -0.03833574 0.02213321
v 0.3793869 -0.03833574 0.02213319
v -0.3793868 -0.04275799 0.01145699
v 0.3793869 -0.04275799 0.01145698
v -0.3793868 -0.04426634 7.3502E-09
v 0.3793869 -0.04426634 -4.544966E-09
v -0.3793869 -0.04275799 -0.01145697
v 0.3793868 -0.04275799 -0.01145698
v -0.3793869 -0.03833574 -0.02213319
v 0.3793868 -0.03833574 -0.02213321
v -0.3793869 -0.03130102 -0.03130107
v 0.3793868 -0.03130102 -0.03130108
v -0.3793869 -0.02213311 -0.03833579
v 0.3793868 -0.02213311 -0.0383358
v -0.3793869 -0.0114569 -0.04275804
v 0.3793868 -0.0114569 -0.04275804
v -0.379387 6.294666E-08 -0.04426639
v 0.3793868 6.294667E-08 -0.0442664
v -0.379387 0.01145703 -0.04275804
v 0.3793868 0.01145703 -0.04275804
v -0.3793869 0.02213323 -0.03833579
v 0.3793868 0.02213323 -0.03833581
v -0.3793869 0.03130114 -0.03130107
v 0.3793868 0.03130114 -0.03130108
v -0.3793869 0.03833586 -0.0221332
v 0.3793868 0.03833586 -0.02213321
v -0.3793869 0.04275811 -0.01145698
v 0.3793868 0.04275811 -0.01145699
v -0.3793869 0.04426646 2.139075E-09
v 0.3793868 0.04426646 -9.756089E-09
v -0.3793869 0.04275811 0.01145698
v 0.3793869 0.04275811 0.01145697
v -0.3793869 0.03833586 0.0221332
v 0.3793869 0.03833586 0.02213319
v -0.3793868 0.03130114 0.03130108
v 0.3793869 0.03130114 0.03130107
v -0.3793868 0.02213323 0.0383358
v 0.3793869 0.02213329 0.03833579
v -0.3793868 0.01145702 0.04275804
v 0.3793869 0.01145708 0.04275804
v -0.3793868 5.626262E-08 0.0442664
v 0.379387 5.626262E-08 0.04426639
v -0.3793869 -0.04275799 -0.01145697
v -0.3793868 -0.04275799 0.01145699
v -0.3793868 -0.04426634 7.3502E-09
v -0.3793869 -0.03833574 -0.02213319
v -0.3793868 -0.03833574 0.02213321
v -0.3793869 -0.03130102 -0.03130107
v -0.3793868 -0.03130103 0.03130108
v -0.3793868 -0.02213312 0.03833581
v -0.3793869 -0.02213311 -0.03833579
v -0.3793868 -0.01145691 0.04275804
v -0.3793869 -0.0114569 -0.04275804
v -0.3793868 5.626262E-08 0.0442664
v -0.379387 6.294666E-08 -0.04426639
v -0.3793868 0.01145702 0.04275804
v -0.379387 0.01145703 -0.04275804
v -0.3793868 0.02213323 0.0383358
v -0.3793869 0.02213323 -0.03833579
v -0.3793868 0.03130114 0.03130108
v -0.3793869 0.03130114 -0.03130107
v -0.3793869 0.03833586 0.0221332
v -0.3793869 0.03833586 -0.0221332
v -0.3793869 0.04275811 -0.01145698
v -0.3793869 0.04275811 0.01145698
v -0.3793869 0.04426646 2.139075E-09
v 0.3793869 -0.04275799 0.01145698
v 0.3793868 -0.04275799 -0.01145698
v 0.3793869 -0.04426634 -4.544966E-09
v 0.3793869 -0.03833574 0.02213319
v 0.3793868 -0.03833574 -0.02213321
v 0.3793869 -0.03130103 0.03130107
v 0.3793868 -0.03130102 -0.03130108
v 0.379387 -0.02213312 0.03833579
v 0.3793868 -0.02213311 -0.0383358
v 0.379387 -0.01145691 0.04275804
v 0.3793868 -0.0114569 -0.04275804
v 0.379387 5.626262E-08 0.04426639
v 0.3793868 6.294667E-08 -0.0442664
v 0.3793869 0.01145708 0.04275804
v 0.3793868 0.01145703 -0.04275804
v 0.3793868 0.02213323 -0.03833581
v 0.3793869 0.02213329 0.03833579
v 0.3793868 0.03130114 -0.03130108
v 0.3793869 0.03130114 0.03130107
v 0.3793869 0.03833586 0.02213319
v 0.3793868 0.03833586 -0.02213321
v 0.3793869 0.04275811 0.01145697
v 0.3793868 0.04275811 -0.01145699
v 0.3793868 0.04426646 -9.756089E-09
vt 1 0.5
vt 0.9583333 1
vt 1 1
vt 0.9583333 0.5
vt 0.9166666 1
vt 0.9166666 0.5
vt 0.8749999 1
vt 0.8749999 0.5
vt 0.8333333 1
vt 0.8333333 0.5
vt 0.7916666 1
vt 0.7916666 0.5
vt 0.7499999 1
vt 0.7499999 0.5
vt 0.7083332 1
vt 0.7083332 0.5
vt 0.6666665 1
vt 0.6666665 0.5
vt 0.6249998 1
vt 0.6249998 0.5
vt 0.5833331 1
vt 0.5833331 0.5
vt 0.5416664 1
vt 0.5416664 0.5
vt 0.4999998 1
vt 0.4999998 0.5
vt 0.4583331 1
vt 0.4583331 0.5
vt 0.4166665 1
vt 0.4166665 0.5
vt 0.3749998 1
vt 0.3749998 0.5
vt 0.3333332 1
vt 0.3333332 0.5
vt 0.2916665 1
vt 0.2916665 0.5
vt 0.2499998 1
vt 0.2499998 0.5
vt 0.2083332 1
vt 0.2083332 0.5
vt 0.1666665 1
vt 0.1666665 0.5
vt 0.1249998 1
vt 0.1249998 0.5
vt 0.08333315 1
vt 0.08333315 0.5
vt 0.04166648 1
vt 0.04166648 0.5
vt -1.862645E-07 1
vt -1.862645E-07 0.5
vt 0.4818222 0.1878834
vt 0.4818222 0.3121166
vt 0.49 0.25
vt 0.4578461 0.13
vt 0.4578461 0.37
vt 0.4197056 0.08029439
vt 0.4197056 0.4197056
vt 0.37 0.4578461
vt 0.37 0.04215391
vt 0.3121166 0.4818222
vt 0.3121166 0.01817781
vt 0.25 0.49
vt 0.25 0.01000001
vt 0.1878834 0.4818222
vt 0.1878834 0.01817781
vt 0.13 0.4578461
vt 0.13 0.04215391
vt 0.08029439 0.4197056
vt 0.08029439 0.08029439
vt 0.04215391 0.37
vt 0.04215391 0.13
vt 0.01817781 0.1878834
vt 0.01817781 0.3121166
vt 0.01000001 0.25
vt 0.9818222 0.3121166
vt 0.9818222 0.1878834
vt 0.99 0.25
vt 0.9578461 0.37
vt 0.9578461 0.13
vt 0.9197056 0.4197056
vt 0.9197056 0.08029439
vt 0.87 0.4578461
vt 0.87 0.04215391
vt 0.8121166 0.4818222
vt 0.8121166 0.01817781
vt 0.75 0.49
vt 0.75 0.01000001
vt 0.6878834 0.4818222
vt 0.6878834 0.01817781
vt 0.63 0.04215391
vt 0.63 0.4578461
vt 0.5802944 0.08029439
vt 0.5802944 0.4197056
vt 0.5421539 0.37
vt 0.5421539 0.13
vt 0.5181778 0.3121166
vt 0.5181778 0.1878834
vt 0.51 0.25
vn 0 -2.966154E-07 1
vn 0 -0.2588202 0.9659255
vn 0 0 1
vn 0 -0.2588202 0.9659255
vn 0 -0.4999986 0.8660262
vn 0 -0.4999985 0.8660263
vn 0 -0.7071065 0.707107
vn 0 -0.7071063 0.7071072
vn 0 -0.8660259 0.4999991
vn 0 -0.8660259 0.4999991
vn 0 -0.9659255 0.2588202
vn 0 -0.9659255 0.2588202
vn 0 -1 -2.296372E-07
vn 0 -1 3.061842E-07
vn 0 -0.9659255 -0.2588204
vn 0 -0.9659256 -0.2588198
vn 0 -0.8660258 -0.4999993
vn 0 -0.8660258 -0.4999993
vn 0 -0.7071059 -0.7071075
vn 0 -0.7071061 -0.7071075
vn 0 -0.4999985 -0.8660262
vn 0 -0.4999985 -0.8660262
vn 0 -0.2588204 -0.9659255
vn 0 -0.2588206 -0.9659254
vn 0 1.291713E-07 -1
vn 0 0 -1
vn 0 0.2588202 -0.9659255
vn 0 0.2588203 -0.9659255
vn 0 0.4999985 -0.8660263
vn 0 0.4999987 -0.8660262
vn 0 0.7071064 -0.7071072
vn 0 0.7071064 -0.7071071
vn 0 0.8660259 -0.4999991
vn 0 0.8660259 -0.4999991
vn 0 0.9659255 -0.2588202
vn 0 0.9659255 -0.2588202
vn 0 1 0
vn 0 1 2.105008E-07
vn 0 0.9659255 0.2588202
vn 0 0.9659255 0.2588204
vn 0 0.866026 0.4999989
vn 0 0.8660258 0.4999993
vn 0 0.7071069 0.7071066
vn 0 0.7071066 0.7071069
vn 0 0.4999993 0.8660258
vn 0 0.4999993 0.8660258
vn 0 0.2588205 0.9659255
vn 0 0.2588203 0.9659255
vn 0 0 1
vn 0 -2.966154E-07 1
vn -1 -6.365264E-07 1.032948E-06
vn -1 -6.365264E-07 1.032948E-06
vn -1 -6.365264E-07 1.032948E-06
vn -1 -6.365264E-07 1.032948E-06
vn -1 -6.365264E-07 1.032948E-06
vn -1 -6.365264E-07 1.032948E-06
vn -1 -6.365264E-07 1.032948E-06
vn -1 -6.365264E-07 1.032948E-06
vn -1 -6.365264E-07 1.032948E-06
vn -1 -6.365264E-07 1.032948E-06
vn -1 -6.365264E-07 1.032948E-06
vn -1 -6.365264E-07 1.032948E-06
vn -1 -6.365264E-07 1.032948E-06
vn -1 -6.365264E-07 1.032948E-06
vn -1 -6.365264E-07 1.032948E-06
vn -1 -6.365264E-07 1.032948E-06
vn -1 -6.365264E-07 1.032948E-06
vn -1 -6.365264E-07 1.032948E-06
vn -1 -6.365264E-07 1.032948E-06
vn -1 -6.365264E-07 1.032948E-06
vn -1 -6.365264E-07 1.032948E-06
vn -1 -6.365264E-07 1.032948E-06
vn -1 -6.365264E-07 1.032948E-06
vn -1 -6.365264E-07 1.032948E-06
vn 1 3.562382E-07 -2.065895E-06
vn 1 3.562382E-07 -2.065895E-06
vn 1 3.562382E-07 -2.065895E-06
vn 1 3.562382E-07 -2.065895E-06
vn 1 3.562382E-07 -2.065895E-06
vn 1 3.562382E-07 -2.065895E-06
vn 1 3.562382E-07 -2.065895E-06
vn 1 3.562382E-07 -2.065895E-06
vn 1 3.562382E-07 -2.065895E-06
vn 1 3.562382E-07 -2.065895E-06
vn 1 3.562382E-07 -2.065895E-06
vn 1 3.562382E-07 -2.065895E-06
vn 1 3.562382E-07 -2.065895E-06
vn 1 3.562382E-07 -2.065895E-06
vn 1 3.562382E-07 -2.065895E-06
vn 1 3.562382E-07 -2.065895E-06
vn 1 3.562382E-07 -2.065895E-06
vn 1 3.562382E-07 -2.065895E-06
vn 1 3.562382E-07 -2.065895E-06
vn 1 3.562382E-07 -2.065895E-06
vn 1 3.562382E-07 -2.065895E-06
vn 1 3.562382E-07 -2.065895E-06
vn 1 3.562382E-07 -2.065895E-06
vn 1 3.562382E-07 -2.065895E-06
g Slot_Lock_0
f 3/3/3 2/2/2 1/1/1
f 2/2/2 4/4/4 1/1/1
f 2/2/2 5/5/5 4/4/4
f 5/5/5 6/6/6 4/4/4
f 5/5/5 7/7/7 6/6/6
f 7/7/7 8/8/8 6/6/6
f 7/7/7 9/9/9 8/8/8
f 9/9/9 10/10/10 8/8/8
f 9/9/9 11/11/11 10/10/10
f 11/11/11 12/12/12 10/10/10
f 11/11/11 13/13/13 12/12/12
f 13/13/13 14/14/14 12/12/12
f 13/13/13 15/15/15 14/14/14
f 15/15/15 16/16/16 14/14/14
f 15/15/15 17/17/17 16/16/16
f 17/17/17 18/18/18 16/16/16
f 17/17/17 19/19/19 18/18/18
f 19/19/19 20/20/20 18/18/18
f 19/19/19 21/21/21 20/20/20
f 21/21/21 22/22/22 20/20/20
f 21/21/21 23/23/23 22/22/22
f 23/23/23 24/24/24 22/22/22
f 23/23/23 25/25/25 24/24/24
f 25/25/25 26/26/26 24/24/24
f 25/25/25 27/27/27 26/26/26
f 27/27/27 28/28/28 26/26/26
f 27/27/27 29/29/29 28/28/28
f 29/29/29 30/30/30 28/28/28
f 29/29/29 31/31/31 30/30/30
f 31/31/31 32/32/32 30/30/30
f 31/31/31 33/33/33 32/32/32
f 33/33/33 34/34/34 32/32/32
f 33/33/33 35/35/35 34/34/34
f 35/35/35 36/36/36 34/34/34
f 35/35/35 37/37/37 36/36/36
f 37/37/37 38/38/38 36/36/36
f 37/37/37 39/39/39 38/38/38
f 39/39/39 40/40/40 38/38/38
f 39/39/39 41/41/41 40/40/40
f 41/41/41 42/42/42 40/40/40
f 41/41/41 43/43/43 42/42/42
f 43/43/43 44/44/44 42/42/42
f 43/43/43 45/45/45 44/44/44
f 45/45/45 46/46/46 44/44/44
f 45/45/45 47/47/47 46/46/46
f 47/47/47 48/48/48 46/46/46
f 47/47/47 49/49/49 48/48/48
f 49/49/49 50/50/50 48/48/48
f 53/53/53 52/52/52 51/51/51
f 54/54/54 51/51/51 52/52/52
f 55/55/55 54/54/54 52/52/52
f 56/56/56 54/54/54 55/55/55
f 57/57/57 56/56/56 55/55/55
f 58/58/58 56/56/56 57/57/57
f 59/59/59 56/56/56 58/58/58
f 60/60/60 59/59/59 58/58/58
f 61/61/61 59/59/59 60/60/60
f 62/62/62 61/61/61 60/60/60
f 63/63/63 61/61/61 62/62/62
f 64/64/64 63/63/63 62/62/62
f 65/65/65 63/63/63 64/64/64
f 66/66/66 65/65/65 64/64/64
f 67/67/67 65/65/65 66/66/66
f 68/68/68 67/67/67 66/66/66
f 69/69/69 67/67/67 68/68/68
f 70/70/70 69/69/69 68/68/68
f 71/71/71 69/69/69 70/70/70
f 72/72/72 71/71/71 70/70/70
f 73/73/73 72/72/72 70/70/70
f 74/74/74 72/72/72 73/73/73
f 77/77/77 76/76/76 75/75/75
f 78/78/78 75/75/75 76/76/76
f 79/79/79 78/78/78 76/76/76
f 80/80/80 78/78/78 79/79/79
f 81/81/81 80/80/80 79/79/79
f 82/82/82 80/80/80 81/81/81
f 83/83/83 82/82/82 81/81/81
f 84/84/84 82/82/82 83/83/83
f 85/85/85 84/84/84 83/83/83
f 86/86/86 84/84/84 85/85/85
f 87/87/87 86/86/86 85/85/85
f 88/88/88 86/86/86 87/87/87
f 89/89/89 88/88/88 87/87/87
f 90/90/90 88/88/88 89/89/89
f 91/91/91 88/88/88 90/90/90
f 92/92/92 91/91/91 90/90/90
f 93/93/93 91/91/91 92/92/92
f 94/94/94 93/93/93 92/92/92
f 95/95/95 94/94/94 92/92/92
f 96/96/96 94/94/94 95/95/95
f 97/97/97 96/96/96 95/95/95
f 98/98/98 96/96/96 97/97/97
