g ZipperHandler
v -0.00654789 0.01350894 3.979402E-05
v 0.02757095 0.02320129 3.979402E-05
v 0.01702789 0.0135091 0.03248851
v -0.01709121 -0.007577471 0.03248859
v -0.03047557 -0.01267327 3.979402E-05
v 0.009633904 -0.01267302 0.05524525
v -0.03415081 -0.04169669 0.0200941
v -0.01057519 -0.04169669 0.05254336
v -0.03415081 -0.04169669 -0.02001452
v -0.01709121 -0.007577467 -0.03240903
v -0.00654789 0.01350894 3.979402E-05
v 0.01702789 0.01350911 -0.03240891
v 0.02757095 0.02320129 3.979402E-05
v 0.009633904 -0.01267301 -0.05516566
v -0.01057519 -0.04169669 -0.05246377
v -0.02763439 -0.0758159 3.979402E-05
v -0.01938974 -0.07072034 0.03415834
v -0.01938974 -0.07072034 -0.03407872
v -3.166914E-05 -0.09690248 0.02009401
v -3.166914E-05 -0.09690248 -0.02001444
v 0.02757095 -0.1065947 3.979402E-05
v 0.01051127 -0.07581604 0.05254307
v -3.166914E-05 -0.09690248 0.02009401
v 0.01051127 -0.07581602 -0.05246349
v -3.166914E-05 -0.09690248 -0.02001444
v 0.02757095 -0.04169669 -0.06485824
v 0.03811397 -0.09690248 -0.03240892
v 0.02757095 -0.1065947 3.979402E-05
v 0.04550796 -0.07072036 -0.05516567
v 0.06571706 -0.04169669 -0.05246377
v 0.0446306 -0.007577348 -0.05246348
v 0.07453166 -0.01267304 -0.03407874
v 0.01702789 0.01350911 -0.03240891
v 0.05517353 0.01350911 -0.02001443
v 0.02757095 0.02320129 3.979402E-05
v 0.03811397 -0.09690248 0.0324885
v 0.02757095 -0.1065947 3.979402E-05
v 0.04550796 -0.07072037 0.05524525
v 0.02757095 -0.04169669 0.06493783
v 0.0446306 -0.007577356 0.05254308
v 0.01702789 0.0135091 0.03248851
v 0.06571706 -0.04169669 0.05254336
v 0.05517353 0.0135091 0.02009402
v 0.02757095 0.02320129 3.979402E-05
v 0.07453166 -0.01267305 0.03415832
v 0.07223309 -0.0758159 0.03248861
v 0.03811397 -0.09690248 0.0324885
v 0.08929268 -0.04169669 0.0200941
v 0.06168978 -0.09690231 3.979402E-05
v 0.02757095 -0.1065947 3.979402E-05
v 0.08561742 -0.07072012 3.979402E-05
v 0.08277632 -0.007577469 3.979402E-05
v 0.05517353 0.0135091 0.02009402
v 0.08929268 -0.04169669 -0.02001452
v 0.05517353 0.01350911 -0.02001443
v 0.02757095 0.02320129 3.979402E-05
v 0.07453166 -0.01267304 -0.03407874
v 0.06571706 -0.04169669 -0.05246377
v 0.07223309 -0.0758159 -0.03240901
v 0.04550796 -0.07072036 -0.05516567
v 0.06168978 -0.09690231 3.979402E-05
v 0.03811397 -0.09690248 -0.03240892
v 0.02757095 -0.1065947 3.979402E-05
vt 0.4090915 0.3936515
vt 0.454546 0.472382
vt 0.5000005 0.3936515
vt 0.454546 0.314921
vt 0.363637 0.314921
vt 0.545455 0.314921
vt 0.4090915 0.236191
vt 0.5000005 0.236191
vt 0.3181825 0.236191
vt 0.272728 0.314921
vt 0.3181825 0.3936515
vt 0.2272735 0.3936515
vt 0.272728 0.472382
vt 0.181819 0.314921
vt 0.2272735 0.236191
vt 0.363637 0.157461
vt 0.454546 0.157461
vt 0.272728 0.157461
vt 0.4090915 0.0787305
vt 0.3181825 0.0787305
vt 0.363637 0
vt 0.545455 0.157461
vt 0.5000005 0.0787305
vt 0.181819 0.157461
vt 0.2272735 0.0787305
vt 0.1363645 0.236191
vt 0.1363645 0.0787305
vt 0.181819 0
vt 0.09091 0.157461
vt 0.045455 0.236191
vt 0.0909095 0.314921
vt 0 0.314921
vt 0.1363645 0.3936515
vt 0.045455 0.3936515
vt 0.09091 0.472382
vt 0.5909095 0.0787305
vt 0.545455 0
vt 0.636364 0.157461
vt 0.5909095 0.236191
vt 0.636364 0.314921
vt 0.5909095 0.3936515
vt 0.6818185 0.236191
vt 0.6818185 0.3936515
vt 0.636364 0.472382
vt 0.727273 0.314921
vt 0.727273 0.157461
vt 0.6818185 0.0787305
vt 0.7727275 0.236191
vt 0.7727275 0.0787305
vt 0.727273 0
vt 0.818182 0.157461
vt 0.818182 0.314921
vt 0.7727275 0.3936515
vt 0.8636365 0.236191
vt 0.8636365 0.3936515
vt 0.818182 0.472382
vt 0.909091 0.314921
vt 0.9545455 0.236191
vt 0.909091 0.157461
vt 1 0.157461
vt 0.8636365 0.0787305
vt 0.9545455 0.0787305
vt 0.909091 0
vn -0.5257293 0.8506519 1.14076E-07
vn -1.371913E-06 1 0
vn -0.1624571 0.8506535 0.4999962
vn -0.6881897 0.5257337 0.4999989
vn -0.8944266 0.4472147 0
vn -0.2763897 0.4472181 0.8506496
vn -0.9510571 -6.619065E-07 0.3090151
vn -0.5877864 2.520289E-07 0.8090161
vn -0.9510571 -8.117972E-07 -0.3090151
vn -0.6881897 0.5257338 -0.499999
vn -0.5257293 0.8506519 1.14076E-07
vn -0.162457 0.8506536 -0.499996
vn -1.371913E-06 1 0
vn -0.2763895 0.4472182 -0.8506496
vn -0.5877864 0 -0.8090161
vn -0.850649 -0.525734 0
vn -0.7236081 -0.4472168 0.5257267
vn -0.7236082 -0.4472168 -0.5257265
vn -0.4253239 -0.8506532 0.3090129
vn -0.425324 -0.850653 -0.3090131
vn 1.633419E-06 -1 0
vn -0.262869 -0.5257353 0.8090131
vn -0.4253239 -0.8506532 0.3090129
vn -0.2628691 -0.5257351 -0.8090132
vn -0.425324 -0.850653 -0.3090131
vn 1.379527E-07 1.008116E-07 -1
vn 0.162457 -0.8506534 -0.4999967
vn 1.633419E-06 -1 0
vn 0.2763896 -0.4472181 -0.8506496
vn 0.5877863 -5.080372E-07 -0.8090163
vn 0.2628689 0.5257353 -0.8090132
vn 0.7236081 0.4472165 -0.5257269
vn -0.162457 0.8506536 -0.499996
vn 0.425323 0.8506536 -0.3090126
vn -1.371913E-06 1 0
vn 0.162457 -0.8506534 0.4999965
vn 1.633419E-06 -1 0
vn 0.2763895 -0.4472183 0.8506495
vn 1.114233E-07 0 1
vn 0.2628691 0.5257351 0.8090132
vn -0.1624571 0.8506535 0.4999962
vn 0.5877863 -4.151844E-07 0.8090162
vn 0.4253231 0.8506534 0.3090129
vn -1.371913E-06 1 0
vn 0.7236083 0.4472165 0.5257267
vn 0.6881897 -0.5257338 0.4999989
vn 0.162457 -0.8506534 0.4999965
vn 0.9510571 0 0.3090151
vn 0.5257298 -0.8506516 0
vn 1.633419E-06 -1 0
vn 0.8944266 -0.4472147 0
vn 0.8506491 0.5257338 0
vn 0.4253231 0.8506534 0.3090129
vn 0.9510572 -1.220348E-07 -0.309015
vn 0.425323 0.8506536 -0.3090126
vn -1.371913E-06 1 0
vn 0.7236081 0.4472165 -0.5257269
vn 0.5877863 -5.080372E-07 -0.8090163
vn 0.6881897 -0.5257338 -0.4999989
vn 0.2763896 -0.4472181 -0.8506496
vn 0.5257298 -0.8506516 0
vn 0.162457 -0.8506534 -0.4999967
vn 1.633419E-06 -1 0
g ZipperHandler_0
f 3/3/3 2/2/2 1/1/1
f 4/4/4 3/3/3 1/1/1
f 4/4/4 1/1/1 5/5/5
f 6/6/6 3/3/3 4/4/4
f 4/4/4 5/5/5 7/7/7
f 6/6/6 4/4/4 8/8/8
f 8/8/8 4/4/4 7/7/7
f 7/7/7 5/5/5 9/9/9
f 5/5/5 10/10/10 9/9/9
f 5/5/5 11/11/11 10/10/10
f 10/10/10 11/11/11 12/12/12
f 11/11/11 13/13/13 12/12/12
f 10/10/10 12/12/12 14/14/14
f 9/9/9 10/10/10 15/15/15
f 10/10/10 14/14/14 15/15/15
f 16/16/16 7/7/7 9/9/9
f 8/8/8 7/7/7 17/17/17
f 17/17/17 7/7/7 16/16/16
f 9/9/9 15/15/15 18/18/18
f 16/16/16 9/9/9 18/18/18
f 19/19/19 17/17/17 16/16/16
f 20/20/20 19/19/19 16/16/16
f 20/20/20 16/16/16 18/18/18
f 21/21/21 19/19/19 20/20/20
f 22/22/22 8/8/8 17/17/17
f 22/22/22 17/17/17 23/23/23
f 18/18/18 15/15/15 24/24/24
f 18/18/18 24/24/24 25/25/25
f 15/15/15 14/14/14 26/26/26
f 24/24/24 15/15/15 26/26/26
f 25/25/25 24/24/24 27/27/27
f 25/25/25 27/27/27 28/28/28
f 24/24/24 29/29/29 27/27/27
f 24/24/24 26/26/26 29/29/29
f 26/26/26 30/30/30 29/29/29
f 14/14/14 31/31/31 26/26/26
f 26/26/26 31/31/31 30/30/30
f 31/31/31 32/32/32 30/30/30
f 14/14/14 33/33/33 31/31/31
f 31/31/31 34/34/34 32/32/32
f 31/31/31 33/33/33 34/34/34
f 33/33/33 35/35/35 34/34/34
f 36/36/36 22/22/22 23/23/23
f 36/36/36 23/23/23 37/37/37
f 38/38/38 22/22/22 36/36/36
f 38/38/38 39/39/39 22/22/22
f 22/22/22 39/39/39 8/8/8
f 39/39/39 6/6/6 8/8/8
f 40/40/40 6/6/6 39/39/39
f 40/40/40 41/41/41 6/6/6
f 42/42/42 39/39/39 38/38/38
f 42/42/42 40/40/40 39/39/39
f 40/40/40 43/43/43 41/41/41
f 43/43/43 44/44/44 41/41/41
f 45/45/45 43/43/43 40/40/40
f 45/45/45 40/40/40 42/42/42
f 46/46/46 42/42/42 38/38/38
f 46/46/46 38/38/38 47/47/47
f 48/48/48 45/45/45 42/42/42
f 46/46/46 48/48/48 42/42/42
f 49/49/49 46/46/46 47/47/47
f 49/49/49 47/47/47 50/50/50
f 51/51/51 46/46/46 49/49/49
f 51/51/51 48/48/48 46/46/46
f 52/52/52 45/45/45 48/48/48
f 52/52/52 53/53/53 45/45/45
f 54/54/54 48/48/48 51/51/51
f 54/54/54 52/52/52 48/48/48
f 52/52/52 55/55/55 53/53/53
f 55/55/55 56/56/56 53/53/53
f 57/57/57 55/55/55 52/52/52
f 57/57/57 52/52/52 54/54/54
f 58/58/58 57/57/57 54/54/54
f 59/59/59 54/54/54 51/51/51
f 59/59/59 58/58/58 54/54/54
f 60/60/60 58/58/58 59/59/59
f 59/59/59 51/51/51 61/61/61
f 60/60/60 59/59/59 62/62/62
f 62/62/62 59/59/59 61/61/61
f 62/62/62 61/61/61 63/63/63
